<svg xmlns="http://www.w3.org/2000/svg" width="64" height="64" viewBox="0 0 64 64">
  <g id="icon_4" transform="translate(-424.545 -408.523)">
    <circle id="Ellipse_5" data-name="Ellipse 5" cx="32" cy="32" r="32" transform="translate(424.545 408.523)" fill="#fdd30e"/>
    <g id="Group_55" data-name="Group 55" transform="translate(438.168 424.716)">
      <g id="Group_54" data-name="Group 54">
        <path id="Path_108" data-name="Path 108" d="M459.864,419.012c-3.2-.328-7.273,1.33-8.292,4.093-.907-2.8-5.792-4.611-9-4.41-8.477.531-11.538,10.062-8.082,16.581a36.934,36.934,0,0,0,7.548,9.383c.818.765,2.063,1.818,3.367,2.883l-.022,0c1.087.886,2.211,1.782,3.163,2.532a33.165,33.165,0,0,0,.438-3.806,4.342,4.342,0,0,0-1.333-2.712,20.9,20.9,0,0,1-2.281-2.213c-.29-.373-.521-.784-.794-1.17s-.568-.76-.87-1.127c-.619-.749-1.274-1.468-1.932-2.183-.56-.607-1.156-1.2-1.653-1.862-.336-.446-.724-1.1-.26-1.6a1.078,1.078,0,0,1,1.236-.364,4.746,4.746,0,0,1,1.37,1.092c.5.515.966,1.065,1.432,1.612a4.992,4.992,0,0,0,.966,1.031,1.977,1.977,0,0,0,2.39-.2,2.06,2.06,0,0,0,.22-1.814c-.207-.87-.5-1.717-.7-2.592a28.927,28.927,0,0,1-.741-5.11,5.09,5.09,0,0,1,.07-1.484.863.863,0,0,1,.584-.555c1.132-.485,1.513.99,1.623,1.81a16.147,16.147,0,0,0,.572,3.117,5.021,5.021,0,0,0,.955,1.8c.108.118.343.421.438.177a3.763,3.763,0,0,0,.1-1.137c.022-.509.1-1.012.12-1.523.019-.571-.014-1.143-.049-1.712a8.327,8.327,0,0,1,.022-2.462,1.1,1.1,0,0,1,1.121-.937c.547.067.73.711.8,1.169a5.091,5.091,0,0,1,.041.909c-.013.368-.022.725-.018,1.094a18.417,18.417,0,0,0,.322,3.973,1.427,1.427,0,0,0,.238.636c.177.179.311-.112.371-.263a7.292,7.292,0,0,0,.328-2.318,14.136,14.136,0,0,0-.01-2.079,2.683,2.683,0,0,1,.332-1.929.769.769,0,0,1,1.178-.045,2.666,2.666,0,0,1,.474,1.513,17.206,17.206,0,0,1-.139,3.925,13.958,13.958,0,0,0-.155,1.859c0,.234-.049,1.26.4,1a2.4,2.4,0,0,0,.874-1.591c.156-.671.22-1.362.327-2.042a3.014,3.014,0,0,1,.462-1.448.938.938,0,0,1,.909-.293c.327.108.392.5.418.8a17.541,17.541,0,0,1-.03,2.148,35.251,35.251,0,0,1-.474,4.844,41.78,41.78,0,0,1-1.145,4.955,16.077,16.077,0,0,1-.682,1.908c-.284.636-.722,1.186-.988,1.829a1.658,1.658,0,0,0-.171.679c.011.284.128.579.164.867l.033.277c.04.332.179,1.188.306,1.982,1.682-1.248,3.417-2.575,4.472-3.487a36.928,36.928,0,0,0,7.924-9.073C471.867,429.571,468.312,419.881,459.864,419.012Z" transform="translate(-433.089 -418.679)"/>
        <path id="Path_109" data-name="Path 109" d="M450.814,431.8l-2.929-.01-.274,0,.008-2.133,0-1.07a.223.223,0,0,0-.22-.22l-1.819-.006a.221.221,0,0,0-.222.218l-.01,2.929,0,.274-2.133-.006-1.07,0a.22.22,0,0,0-.22.218l-.006,1.821a.2.2,0,0,0,.062.153.2.2,0,0,0,.156.067l2.929.01.276,0-.008,2.133,0,1.07a.221.221,0,0,0,.218.222l1.821.006a.207.207,0,0,0,.155-.064.2.2,0,0,0,.065-.156l.011-2.929v-.274l2.133.006,1.07,0a.224.224,0,0,0,.222-.22l.006-1.819A.224.224,0,0,0,450.814,431.8Z" transform="translate(-427.841 -412.925)"/>
      </g>
    </g>
  </g>
</svg>
