<svg xmlns="http://www.w3.org/2000/svg" xmlns:xlink="http://www.w3.org/1999/xlink" width="1440" height="256" viewBox="0 0 1440 256"><defs><linearGradient id="a" x1="0.564" y1="0.989" x2="0.442" y2="0.059" gradientUnits="objectBoundingBox"><stop offset="0" stop-color="#f0f2f5"/><stop offset="0.99" stop-color="#f5f7f8"/></linearGradient><linearGradient id="b" x1="0.565" y1="0.993" x2="0.441" y2="0.055" gradientUnits="objectBoundingBox"><stop offset="0.01" stop-color="#bbc0d9"/><stop offset="1" stop-color="#d6dbf8"/></linearGradient><linearGradient id="c" y1="0.5" x2="1" y2="0.5" gradientUnits="objectBoundingBox"><stop offset="0.087" stop-color="#d9d9d9"/><stop offset="0.995" stop-color="#e6e6e6"/></linearGradient><linearGradient id="d" x1="0.095" y1="0.66" x2="0.789" y2="0.363" gradientUnits="objectBoundingBox"><stop offset="0.01" stop-color="#bbbfd9"/><stop offset="0.294" stop-color="#cacde1"/><stop offset="0.84" stop-color="#f2f2f7"/><stop offset="1" stop-color="#fff"/></linearGradient><linearGradient id="e" x1="0.467" y1="0.878" x2="0.619" y2="0.113" gradientUnits="objectBoundingBox"><stop offset="0.381" stop-color="#201f4f"/><stop offset="0.544" stop-color="#262659"/><stop offset="0.828" stop-color="#383b76"/><stop offset="1" stop-color="#464b8b"/></linearGradient><linearGradient id="f" y1="0.5" x2="1" y2="0.5" gradientUnits="objectBoundingBox"><stop offset="0" stop-color="#a7a5ee"/><stop offset="0.438" stop-color="#9d9ce8"/><stop offset="0.891" stop-color="#8988d5"/></linearGradient><linearGradient id="g" x1="0.341" y1="0.96" x2="0.498" y2="0.482" gradientUnits="objectBoundingBox"><stop offset="0.109" stop-color="#8988d5"/><stop offset="0.562" stop-color="#9d9ce8"/><stop offset="1" stop-color="#a7a5ee"/></linearGradient><linearGradient id="h" x1="6.947" y1="-15.495" x2="7.978" y2="-15.495" gradientUnits="objectBoundingBox"><stop offset="0" stop-color="#753200"/><stop offset="1" stop-color="#a04400"/></linearGradient><linearGradient id="j" x1="-0.422" y1="0.935" x2="0.776" y2="0.254" xlink:href="#h"/><linearGradient id="k" x1="-130.028" y1="24.358" x2="-130.854" y2="25.385" gradientUnits="objectBoundingBox"><stop offset="0" stop-color="#a04400"/><stop offset="1" stop-color="#753200"/></linearGradient><linearGradient id="l" x1="-837.532" y1="72.518" x2="-838.22" y2="72.915" xlink:href="#h"/><linearGradient id="m" x1="-1.665" y1="1.028" x2="-0.63" y2="1.028" gradientUnits="objectBoundingBox"><stop offset="0" stop-color="#201f4f"/><stop offset="0.263" stop-color="#262659"/><stop offset="0.721" stop-color="#383b76"/><stop offset="1" stop-color="#464b8b"/></linearGradient><linearGradient id="n" x1="1.166" y1="0.552" x2="-0.317" y2="0.448" xlink:href="#h"/><linearGradient id="o" x1="0.966" y1="0.543" x2="-0.013" y2="0.403" xlink:href="#h"/><linearGradient id="p" x1="-4.953" y1="2.941" x2="-5.906" y2="3.328" gradientUnits="objectBoundingBox"><stop offset="0.099" stop-color="#753200"/><stop offset="0.481" stop-color="#893a00" stop-opacity="0.522"/><stop offset="0.824" stop-color="#994100" stop-opacity="0.145"/><stop offset="0.997" stop-color="#a04400" stop-opacity="0"/></linearGradient><linearGradient id="q" x1="-0.09" y1="-0.158" x2="0.868" y2="0.847" xlink:href="#k"/><linearGradient id="r" x1="0" y1="0.5" x2="1" y2="0.5" xlink:href="#m"/><linearGradient id="s" y1="0.5" x2="1" y2="0.5" gradientUnits="objectBoundingBox"><stop offset="0" stop-color="#a96e46"/><stop offset="1" stop-color="#ffd0b9"/></linearGradient><linearGradient id="t" x1="1.009" y1="0.174" x2="0.052" y2="1.009" gradientUnits="objectBoundingBox"><stop offset="0" stop-color="#a96e46"/><stop offset="1" stop-color="#ffd0b9" stop-opacity="0"/></linearGradient><linearGradient id="u" x1="-26.481" y1="38.888" x2="-27.112" y2="39.301" xlink:href="#t"/><linearGradient id="v" x1="0" y1="0.5" x2="1" y2="0.5" xlink:href="#f"/><linearGradient id="z" x1="0.346" y1="0.104" x2="0.806" y2="1.035" xlink:href="#s"/><linearGradient id="aa" x1="0" y1="0.5" x2="1" y2="0.5" xlink:href="#a"/><linearGradient id="ab" x1="-0.25" y1="1.096" x2="0.768" y2="0.446" gradientUnits="objectBoundingBox"><stop offset="0.002" stop-color="#1f1844"/><stop offset="0.106" stop-color="#1f1844"/><stop offset="1" stop-color="#1f1844"/></linearGradient></defs><g transform="translate(-240)"><path d="M0,0H1440a0,0,0,0,1,0,0V238a18,18,0,0,1-18,18H18A18,18,0,0,1,0,238V0A0,0,0,0,1,0,0Z" transform="translate(240)" fill="#f8f8f8"/><text transform="translate(342 194)" font-size="48" font-family="Roboto-Bold, Roboto" font-weight="700"><tspan x="0" y="0">HOW TO CARE FOR SOMEONE </tspan></text><g transform="translate(-1126.179 -1350.78)"><g transform="translate(2541.531 1383.259)"><circle cx="33.495" cy="33.495" r="33.495" transform="translate(50.889)" fill="url(#a)"/><path d="M2728.888,1428.339h-13.794v-13.793a3.846,3.846,0,0,0-3.846-3.846h-5.984a3.846,3.846,0,0,0-3.846,3.846v13.793h-13.794a3.846,3.846,0,0,0-3.846,3.846v5.984a3.846,3.846,0,0,0,3.846,3.846h13.794v13.793a3.846,3.846,0,0,0,3.846,3.846h5.984a3.846,3.846,0,0,0,3.846-3.846v-13.793h13.794a3.846,3.846,0,0,0,3.846-3.846v-5.984A3.846,3.846,0,0,0,2728.888,1428.339Z" transform="translate(-2623.872 -1401.682)" fill="url(#b)"/><path d="M2547.921,1727.68l19.732,33.464,88.184-15.45L2637.3,1717.96a8.913,8.913,0,0,0-8.721-2.816Z" transform="translate(-2545.229 -1577.78)" fill="url(#c)"/><path d="M2553.963,1627.906c-13.647,3.557-13.987,13.6-10.726,23.748l6.544,20.361a14.435,14.435,0,0,0,16.657,9.721l45.561-9.391-25.865-48.328Z" transform="translate(-2541.531 -1525.163)" fill="url(#d)"/><path d="M2634.28,1585.568c-11.857-10.375-23.2-1.008-26.164,12.332-.86,3.613-6.63,12.084-7.326,17.564-1.112,8.753,26.173,6.08,26.519,6.36.322.261,7.646,7.477,11.574,8.918C2652.635,1621.333,2644.417,1595.244,2634.28,1585.568Z" transform="translate(-2575.814 -1500.34)" fill="url(#e)"/><path d="M2555.909,1646.172s6.311-2.3,8.356,2.629c4.643,11.186,4.82,27.888,4.454,37.455" transform="translate(-2549.854 -1537.678)" fill="none" stroke="#fff" stroke-miterlimit="10" stroke-width="2"/><path d="M2679.122,1773.677a11.4,11.4,0,0,0-10.813-3.533l-71.446,14.957c-3.26.682-5.571,4.363-3.836,7.206l23.745,40.205h100.312Z" transform="translate(-2570.996 -1609.61)" fill="url(#f)"/><path d="M2688.944,1684c-4.143-5.013-8.449-4.073-10.028-4.777l15.164,30.826.764,12.558,9.909-2.124C2699.692,1711.188,2694.815,1691.1,2688.944,1684Z" transform="translate(-2621.058 -1557.119)" fill="url(#g)"/><path d="M2709.533,1816.226a8.734,8.734,0,0,0-3.221.581l-3.584,6.871a50.664,50.664,0,0,0,6.328,6.662,39.015,39.015,0,0,0,5.9,3.554c2.6,1.334,6.007,3.031,6.31,1.95.281-1-4.422-3.118-4.463-3.341-.075-.407,7.522,3.156,8.114,1.522.439-1.211-7.429-3.72-7.346-4.017.092-.326,9.521,4.022,10.084,2.374.5-1.462-8.938-4.772-8.7-5.236.125-.238,8.88,3.264,9.26,2.12.626-1.892-4.483-2.628-7.233-4.063s-4.128-2.768-4.022-4.214c.052-.723,2.659-.325,2.659-.325a15.573,15.573,0,0,1,4.29,1.1.686.686,0,0,0,1-.574c.015-1.425-2.736-2.56-4.043-2.993-3.771-1.248-11.342-1.97-11.342-1.97" transform="translate(-2634.842 -1636.425)" fill="url(#h)"/><path d="M2626.6,1671.261a17.858,17.858,0,0,1,11.617,3.431,15.562,15.562,0,0,1,3.519,3.621c3.045,4.429,7.106,29.308,7.252,39.237l-23,5.142c1.857.76,14.129,9.354,20.666,9.605-3.692,2.051-4.852,9.6-4.852,9.6-15.318-.327-38.707-12.495-41.739-24.556a156.793,156.793,0,0,1-3.707-28.348c-.139-7.543,6-12.706,9.878-14.643s12.665-2.7,12.665-2.7Z" transform="translate(-2573.264 -1552.497)" fill="url(#f)"/><path d="M2645.61,1576.459c-.057.63-.135,1.255-.222,1.866-.833-3.195-6.285-6.815-12.462-6.25,0,0,0,.747-1.164.955s-1.675-1.241-1.936,0-.256,2.917-1.675,2.917a2.325,2.325,0,0,0-2.453,1.806c-.13.9,2.27,4.149,1.068,4.948-1.376.911-2.37,4.323-2.37,4.323s-1.072-7.922-5.339-3.281c-.3.851-.556,1.71-.769,2.565a2.986,2.986,0,0,1,.807-2.826,2.616,2.616,0,0,1,.647-.43,22.11,22.11,0,0,1-1.033-6.511,15.018,15.018,0,0,1,.447-3.759c1.688-6.515,10.131-8.421,15.622-8.043S2646.135,1570.352,2645.61,1576.459Z" transform="translate(-2585.929 -1490.823)" fill="url(#j)"/><path d="M2625.759,1631.349a19.064,19.064,0,0,0,13.688,8.251l-.039-.733-.045-.9c-3.927-1.157-8.622-3.875-14.09-9.567.036.045.077.09.118.134a19.2,19.2,0,0,1,.335,2.437C2625.733,1631.093,2625.748,1631.219,2625.759,1631.349Z" transform="translate(-2590.005 -1527.7)" fill="url(#k)"/><path d="M2623.976,1613.064s-1.271-1.5-1.994-.232.7,3.234.7,3.234Z" transform="translate(-2587.982 -1518.394)" fill="url(#l)"/><path d="M2636.227,1681.724s13.628,9.9,16.963,9.27.741-13.342.741-13.342" transform="translate(-2596.347 -1556.21)" fill="none" stroke="#fff" stroke-miterlimit="10" stroke-width="1.173"/><path d="M2621.836,1609.671c2-18.9-9.756-32.578-11.093-35.63l-13.849,12.281s6.521,13.4,3.916,21.844c-.272.9,4.637,30.633,4.162,31.521-.164.308-5.646,4.078-9.354,2.917-22.229-6.962-24.681-17.308-24.846-19.175-3.683-41.76,15.362-70.407,26.376-72.073,10.252-1.551,22.26-.443,28.23,17.734,2.6,7.9,4.26,32.713,5.724,44.95C2631.782,1619.728,2625.323,1612.252,2621.836,1609.671Z" transform="translate(-2558.188 -1482.815)" fill="url(#m)"/><path d="M2626.78,1645.129c.106.27.311.937.5,1.6.1.333.189.665.257.948.034.135.072.274.11.417.139.56.274,1.1.4,1.621.511,2.034.956,3.728,1.336,5.13C2630.006,1650.968,2630.6,1646.737,2626.78,1645.129Z" transform="translate(-2590.878 -1537.384)" fill="url(#n)"/><path d="M2645.9,1596.49a25.589,25.589,0,0,1-.451-5.681v0c-1.213-3.167-3.752-1.533-5.361-2.308-2.144-1.044-3.306-3.866-4-3.546-.729,14.9-12.647,19.436-12.647,19.436s-2.114-6.991-5.4-4.135a4.3,4.3,0,0,0-1.394,2.7v.017a5.369,5.369,0,0,0,.922,3.854,16.873,16.873,0,0,0,3.1,3.2.841.841,0,0,0,.16.135.532.532,0,0,1,.061.128c3.059,3.054,3.226,5.839,2.6,9.719,1.169,4.313,1.726,5.841,1.726,5.841.4,1.8,8.061,6,13.78,8.764a1.532,1.532,0,0,0,2.081-1.967l-2.06-11-.261-1.137-.034-.135-.269-1.137-.169-.8-.042-.206q.189-.044.4-.114c.3-.08.615-.189.952-.316,3.479-1.348,8.6-4.974,9.016-11.2C2648.894,1602.238,2646.5,1598.869,2645.9,1596.49Z" transform="translate(-2584.98 -1502.535)" fill="url(#o)"/><path d="M2649.5,1588.495a23.492,23.492,0,0,1-7.906,11.389c-5.982,4.808-8.74,4.5-8.74,4.5s11.917-4.539,12.644-19.435C2646.2,1584.632,2647.361,1587.451,2649.5,1588.495Z" transform="translate(-2594.396 -1502.535)" fill="url(#p)"/><path d="M2647.946,1659.365a24.02,24.02,0,0,1-15.49-8.2,89.742,89.742,0,0,0,15,5.6l.169.8.269,1.137Z" transform="translate(-2594.164 -1540.878)" fill="url(#q)"/><path d="M2545.969,1745.227l-.974,5.165a25.723,25.723,0,0,0,2.764,17.21l26.207,45.823a9.539,9.539,0,0,0,8.281,4.8h6.769Z" transform="translate(-2543.278 -1595.327)" fill="url(#r)"/></g><g transform="translate(2707.612 1402.626)"><path d="M2966.284,1514.272c-5.98,1.5-10.444-24.493-10.444-24.493l-.009-2-.021-5.913-.013-3.062a2.876,2.876,0,0,1-.623-.042c-.282-.034-.648-.089-1.078-.168-2.914-.56-7.029-3.112-9.77-7.842-2.544-4.371-1.782-9.118-2.379-11.893-.582-2.775-3.908-3.748-5.113-6.734-1.546-3.832-1.078-9.168.615-10.777,7.6-7.3,24.666-5.98,24.666-5.98s5.871,1.167,6.271,12.769c.463-.489-.088,2.11.627,1.79a4.856,4.856,0,0,1,3.98-.2c2.363,1.1,2.624,3.9-.143,10.006a17.828,17.828,0,0,0-.539,2.641,19.069,19.069,0,0,0,.2,5.841,28.706,28.706,0,0,0,4.9,11.063C2978.969,1481.764,2972.277,1512.781,2966.284,1514.272Z" transform="translate(-2935.893 -1435.274)" fill="url(#s)"/><g transform="translate(19.281 16.631)"><path d="M2999.01,1505.467c-3.538,7-9.93,11.472-16.7,13.649l-.012-3.062a2.905,2.905,0,0,1-.623-.042c7.454-2.561,13.379-10.924,17.136-16.387A19.061,19.061,0,0,0,2999.01,1505.467Z" transform="translate(-2981.676 -1489.156)" fill="url(#t)"/><path d="M3017.355,1476.231s1.022-2.39,2.43-1.069.369,4.36.369,4.36Z" transform="translate(-3002.329 -1474.764)" fill="url(#u)"/></g></g><path d="M2952.816,1740.447c11.271-1.708,23.1.739,34.129-.971-.852-12.891-3.333-20.658-3.333-20.658l-44.162,4.117-5.187,80.5h22.5s2.344-29.815,3.794-29.815,2.929,29.815,2.929,29.815h22.021s6.055-49.009,1.439-63.963C2975.914,1741.187,2964.088,1738.74,2952.816,1740.447Z" transform="translate(-227.337 -196.781)" fill="#1f1844"/><g transform="translate(2643.556 1440.764)"><path d="M2924.51,1590.683c.517.047.463-.021-.025-.175C2924.47,1590.618,2924.477,1590.68,2924.51,1590.683Z" transform="translate(-2865.229 -1563.271)" fill="url(#v)"/><path d="M2843.438,1615.374c-3.5,12.473-7.325,25.472-7.325,25.472l-24.562,14.8a2.488,2.488,0,0,1-.936-.011c-6.279-3.369-10.748,2.136-15.167,1.993-1.865-.06-1.935-.5-2.456.3s1.374,2.351,2.916,2.583a12.852,12.852,0,0,1,3.282,1.12,18.237,18.237,0,0,0-2.229,2.474c-.936,1.26-4.883,2.375-6.445,2.218-3.278-.327-5.4-.969-6.413-.164-.421.332-.36.925-.137,1.516a4.2,4.2,0,0,0,2.286,2.338c1.923.832,5.632,2.277,7.977,2.174,1.865-.082,4.822.038,7.711-1.607s11.322-6.547,11.322-6.547,30.6-11.739,33.543-14.529c2-1.9,8.707-20.068,9.762-29.6C2851.487,1616.7,2849.245,1617,2843.438,1615.374Z" transform="translate(-2783.792 -1577.665)" fill="url(#s)"/><path d="M2991.888,1544.193c-2.676-3.823-17.687-15.518-22.8-18.359-.008.89-17.282,23.869-17.282,23.869s-5.007-15.335-5.088-16.512c-.013-.2-16.444,12.3-17.373,14.161-2,4.008-5.232,9.66-6.961,15.825,5.808,1.629,6.047,1.79,11.313,3.58-5.137,11.687,1.1,18.463.14,28.71-1.778,19.092-5.376,37.312-5.376,37.312,12.1.771,48.569,9.184,55.34,3.181,2.433-2.156-1.281-13.193.608-26.174,2.727-18.738,3.779-35.156,3.779-35.156s7.9-2.158,8.461-2.215C2998.2,1560.3,2994.82,1548.378,2991.888,1544.193Z" transform="translate(-2864.02 -1525.834)" fill="url(#f)"/></g><path d="M2990.838,1639.978l-33.9,2.3,2.457,50.162,34.226-1.068Z" transform="translate(-240.462 -151.143)" fill="url(#c)"/><path d="M2998.6,1638.5l-2.036,21.689-22.883,1.032s-4.049-3.32-5.992-5.263c-2.193-2.192-6.3-4.265-8.136-3.594a1,1,0,0,0-.568,1.1c.5,2.382,3.96,2.789,3.223,3.592a37.617,37.617,0,0,1-6.354-1.08c-1.6-.492-2.83.674-2.469,1.759a.962.962,0,0,1-.453,1.079,1.764,1.764,0,0,0-.171,2.627c.676.626-1.873,1.151-.324,2.718s-.878,1.718.845,3.127,4.919,1.937,8.678,1.467c3.382-.423,7.33.195,11.722.731s22.106,3.578,27.8,1.644c7.329-2.492,7.159-5.463,11.063-34.693C3005.621,1637.136,2998.6,1638.5,2998.6,1638.5Z" transform="translate(-237.565 -149.094)" fill="url(#z)"/><path d="M3033.511,1537.337s3.371-9.839,2.939-17.43" transform="translate(-284.788 -81.639)" fill="none" stroke="#707070" stroke-linecap="round" stroke-miterlimit="10" stroke-width="3.103"/><g transform="translate(2743.041 1455.665)"><path d="M3033.05,1590.087s-9.277,3.4-11.521-13.658,4.294-16.033,7.311-14.315c3.316,1.888,8.418,18.235-5.643,29.289" transform="translate(-3020.627 -1561.216)" fill="none" stroke="#707070" stroke-miterlimit="10" stroke-width="3.103"/><circle cx="1.525" cy="1.525" r="1.525" transform="translate(10.898 27.346)" fill="#1f1844"/><circle cx="1.525" cy="1.525" r="1.525" transform="translate(0 29.277)" fill="#1f1844"/></g><path d="M2968.249,1543.761s-9.061,17.723-4.919,31.2" transform="translate(-243.536 -95.447)" fill="none" stroke="#707070" stroke-linecap="round" stroke-miterlimit="10" stroke-width="3.103"/><circle cx="4.919" cy="4.919" r="4.919" transform="translate(2714.875 1474.599)" fill="url(#aa)"/><g transform="translate(2553.016 1450.328)"><path d="M2677.827,1567.606l2.6-.857a1.156,1.156,0,0,1,1.163.265l2.517,2.424a1.159,1.159,0,0,0,.478.277l.941.275a1.156,1.156,0,0,1,.832,1.109v2.129a1.149,1.149,0,0,0,.087.442c.3.722,1.284,3.028,1.687,3.129.306.076.563.887.708,1.461a1.153,1.153,0,0,1-.219,1l-.362.453a1.155,1.155,0,0,0,.183,1.627l.794.631a1.156,1.156,0,0,1,.227,1.568l-.6.857a1.155,1.155,0,0,0,.035,1.374l1.851,2.375a1.148,1.148,0,0,1,.061,1.337,2.114,2.114,0,0,1-.767.688c-.655.356-.071,1.433.458,2.191a1.152,1.152,0,0,1-.177,1.512l-.871.788a1.156,1.156,0,0,0-.094,1.619l.992,1.135a1.155,1.155,0,0,1-.115,1.636l-1.075.929a1.156,1.156,0,0,0-.286,1.377l.944,1.955c.052.108,1.615.73,1.631.849.108.775-.769,3.808-1.289,3.86-.291.029.326.442,1.036.856a1.156,1.156,0,0,1,.084,1.941l-.178.126a1.156,1.156,0,0,0-.226,1.678l1.165,1.415a1.156,1.156,0,0,1-.174,1.639h0a1.156,1.156,0,0,0-.024,1.791l.72.6a1.155,1.155,0,0,1,.347,1.271c-.143.4-.3.856-.361,1.036-.08.24.864,1.29,1.492,1.952a1.157,1.157,0,0,1,.215,1.271l-.725,1.607a1.156,1.156,0,0,0,.293,1.346l1.226,1.072a1.156,1.156,0,0,1,.234,1.459l-.892,1.505a1.156,1.156,0,0,0,.3,1.514l1.511,1.133a1.156,1.156,0,0,1,.172,1.69l-1.142,1.292a1.156,1.156,0,0,0,.109,1.639l.358.31a1.155,1.155,0,0,1,.358,1.18l-.909,3.306a1.159,1.159,0,0,0,.26,1.085.924.924,0,0,1,.245.638" transform="translate(-2631.912 -1559.048)" fill="none" stroke="#050505" stroke-linecap="round" stroke-miterlimit="10" stroke-width="6"/><path d="M2638.844,1683.306l1.079,1.529a.631.631,0,0,1-.137.869l-.464.348a.632.632,0,0,0-.147.855l.885,1.327a.631.631,0,0,1,.023.664l-1.056,1.847a.632.632,0,0,0,.007.638l1.005,1.675a.632.632,0,0,1-.067.742l-1.939,2.2a.632.632,0,0,0,.018.854l1.779,1.86a.631.631,0,0,1-.032.9l-.537.489a.63.63,0,0,0-.177.66c.229.71.745,2.146,1.193,2.236.515.1-.836,1.538-1.217,1.931a.633.633,0,0,0-.146.241c-.148.454-.548,1.867.049,2.365.311.259.24.474.058.633a.63.63,0,0,0-.012.929l1.1,1.039a.631.631,0,0,1,.173.636l-.386,1.321a.631.631,0,0,1-.437.431l-.261.073a.632.632,0,0,0-.121,1.169l.365.189a.631.631,0,0,1-.183,1.183h0a.631.631,0,0,0-.232,1.155l.783.5a.632.632,0,0,1,.232.8c-.177.374-.429.885-.662,1.284s.352,1.352.907,2.094a.631.631,0,0,1-.5,1.011H2638.6" transform="translate(-2608.785 -1626.552)" fill="none" stroke="#050505" stroke-linecap="round" stroke-miterlimit="10" stroke-width="6"/><path d="M2645.562,1700.884l1.771,3.076a.96.96,0,0,1-.385,1.328l-.121.064a.96.96,0,0,0-.17,1.585l1.5,1.255a.96.96,0,0,1-.179,1.59l-.059.03a.96.96,0,0,0-.217,1.557l.719.669a.96.96,0,0,1-.082,1.474l-1.488,1.1a.96.96,0,0,0,.162,1.639l1.354.639a.96.96,0,0,1,.14,1.655l-.814.569a.96.96,0,0,0-.034,1.548l.614.471a.959.959,0,0,1,0,1.523l-.556.426a.96.96,0,0,0,.075,1.575l1.26.789a.96.96,0,0,1,.306,1.32l-1.155,1.86a.96.96,0,0,0,.283,1.3h0a.96.96,0,0,1-.1,1.657l-2.342,1.171" transform="translate(-2613.235 -1636.727)" fill="none" stroke="#050505" stroke-linecap="round" stroke-miterlimit="10" stroke-width="6"/><path d="M2635.746,1567.065h-2.1a.645.645,0,0,0-.645.645v.806a.646.646,0,0,1-.281.532l-1.475,1.009a.645.645,0,0,0-.181.876l.709,1.123a.645.645,0,0,1-.273.929l-3.506,1.631a.645.645,0,0,0-.121,1.1l1.542,1.186a.645.645,0,0,1-.041,1.051l-1.909,1.248a.645.645,0,0,0-.25.77l1.108,2.9a.645.645,0,0,1-.443.855l-1.5.382a.645.645,0,0,0-.3,1.074l1.442,1.482a.645.645,0,0,1-.131,1l-1.952,1.171a.639.639,0,0,0-.219.218l-.714,1.177a.643.643,0,0,0,.022.7l1.172,1.684a.645.645,0,0,1-.334.983l-.541.172a.645.645,0,0,0-.17,1.146h0a.645.645,0,0,1,.082.995l-.8.771a.645.645,0,0,0-.108.791l1.427,2.423a.644.644,0,0,1-.38.948l-1.3.37c-.484.139-.407.517-.257.811a.649.649,0,0,1-.115.755l-1.1,1.1a.645.645,0,0,0-.014.9l1.078,1.145a.645.645,0,0,1,.012.87l-1.2,1.345a.645.645,0,0,0-.062.774l.264.415a.644.644,0,0,1-.14.849l-2.4,1.923a.644.644,0,0,0-.192.749l.549,1.328a.644.644,0,0,1-.285.812l-1.363.75a.645.645,0,0,0-.279.827l1.035,2.328a.645.645,0,0,1-.081.659l-1.481,1.893a.645.645,0,0,0,.15.934l.875.583a.644.644,0,0,1,.071,1.018l-1.134,1.008a.645.645,0,0,0-.131.8l.81,1.418a.645.645,0,0,1-.313.916l-1.711.708a.645.645,0,0,0-.128,1.121l.7.5a.645.645,0,0,1-.078,1.1l-1.417.734a.645.645,0,0,0-.11,1.073l1.834,1.495a.645.645,0,0,1-.011,1.009l-1.9,1.481a.645.645,0,0,0,.019,1.032l1.491,1.073a.645.645,0,0,1-.045,1.076l-1.861,1.116a.645.645,0,0,0-.022,1.093l2.3,1.509a.645.645,0,0,1,.1,1l-1.289,1.289a.645.645,0,0,0,.081.981l.476.34a.645.645,0,0,1,.113.947l-2.714,3.137a.645.645,0,0,0,.3,1.038l2.521.783" transform="translate(-2594.703 -1559.264)" fill="none" stroke="#050505" stroke-linecap="round" stroke-miterlimit="10" stroke-width="6"/><path d="M2631.4,1560.5l-1.758-.612a.744.744,0,0,0-.989.7h0a.744.744,0,0,1-.744.744h-1.258a.744.744,0,0,0-.744.744v.78a.745.745,0,0,1-.745.744h-1.44a.745.745,0,0,0-.7.984l.428,1.26a.744.744,0,0,1-.609.977l-1.788.232a.744.744,0,0,0-.583,1.042l.77,1.719a.744.744,0,0,1-.515,1.03l-1.717.388a.744.744,0,0,0-.44,1.161l.969,1.346a.744.744,0,0,1-.286,1.108l-1.925.909a.744.744,0,0,0,.048,1.366l1.154.449a.744.744,0,0,1,.073,1.354l-.534.278a.744.744,0,0,0-.133,1.232l.2.164a.744.744,0,0,1-.278,1.289l-.5.139a.744.744,0,0,0-.21,1.34l.61.4a.744.744,0,0,1-.246,1.349l-.971.216a.744.744,0,0,0-.278,1.328l.932.681a.744.744,0,0,1-.016,1.212l-1.573,1.089a.744.744,0,0,0-.146,1.091l1.247,1.484a.744.744,0,0,1-.362,1.194l-1.453.422a.744.744,0,0,0-.341,1.218l1.354,1.477a.744.744,0,0,1,0,1.008l-.771.835a.745.745,0,0,0-.2.505v1.8a.744.744,0,0,1-.509.706l-.925.308a.744.744,0,0,0-.468.95l.507,1.459a.744.744,0,0,1-.324.885l-1.453.859a.744.744,0,0,0-.258,1.027l.94,1.543a.744.744,0,0,1-.171.968l-1.518,1.214a.745.745,0,0,0-.263.737l.527,2.459a.745.745,0,0,1-.246.723l-1.455,1.237a.744.744,0,0,0-.062,1.075l.7.748a.744.744,0,0,1,.035.975l-1.734,2.147a.743.743,0,0,0-.013.918l1.079,1.417a.744.744,0,0,1-.175,1.068l-2.441,1.651a.744.744,0,0,0,.034,1.255l1.327.8a.744.744,0,0,1,.244,1.039l-1.175,1.836a.744.744,0,0,0,.1.927l.86.86a.744.744,0,0,1-.1,1.136l-1.509,1.056a.744.744,0,0,0-.083,1.152l1.541,1.448a.744.744,0,0,1-.177,1.208l-.307.153a.744.744,0,0,0-.212,1.172l.295.318a.745.745,0,0,1-.118,1.116l-.979.685a.744.744,0,0,0-.113,1.123l1.174,1.232a.744.744,0,0,1-.133,1.137l-.985.64a.744.744,0,0,0-.2,1.056l.742,1.039" transform="translate(-2590.362 -1555.084)" fill="none" stroke="#050505" stroke-linecap="round" stroke-miterlimit="10" stroke-width="6"/><path d="M2622.729,1555.641l-4.141-.672a.629.629,0,0,0-.5.132l-2.457,1.99a.627.627,0,0,1-.937-.172l-.566-.97a.628.628,0,0,0-1.109.046l-.637,1.334a.627.627,0,0,1-.333.313l-2.458.984a.627.627,0,0,0-.344.83l.924,2.155a.628.628,0,0,1-.577.875h-1.448a.628.628,0,0,0-.605.794l.7,2.553a.628.628,0,0,1-.385.755l-1.835.688a.627.627,0,0,0-.4.7l.537,2.863a.628.628,0,0,1-.306.661l-2.977,1.7a.628.628,0,0,0-.074,1.041l.9.7a.627.627,0,0,1,.1.893l-1.459,1.784a.627.627,0,0,0-.049.726l2.591,4.222a.628.628,0,0,1-.317.917l-2.769,1.029a.628.628,0,0,0-.327.9l1.3,2.27a.628.628,0,0,1-.117.77l-2.826,2.638a.628.628,0,0,0-.091.811l1.7,2.5a.627.627,0,0,1-.044.763l-1.6,1.857a.628.628,0,0,0-.006.815l1.314,1.56a.626.626,0,0,1,.084.681,3.506,3.506,0,0,1-1.742,1.767c-.926.337-.546,1.96-.242,2.888a.627.627,0,0,1-.464.807l-.945.205a.627.627,0,0,0-.447.856l1.631,3.9a.628.628,0,0,1-.3.8l-1.233.617a.626.626,0,0,0-.343.631l.374,3.37a.627.627,0,0,1-.413.66l-.787.281a.627.627,0,0,0-.417.591v3.53a.628.628,0,0,1-.421.593l-1.137.4a.628.628,0,0,0-.285.982l.93,1.178a.628.628,0,0,1-.01.791l-1.1,1.318a.628.628,0,0,0,.038.846l2.471,2.47a.628.628,0,0,1-.237,1.036l-3.844,1.345a.628.628,0,0,0-.143,1.113l2.329,1.566a.627.627,0,0,1,.167.165c.243.352.953,1.505.045,1.807a25.146,25.146,0,0,0-3.307,1.779.627.627,0,0,0,.057,1.1l2.89,1.365a.628.628,0,0,1,.36.568h0a.626.626,0,0,1-.115.362l-1.318,1.867" transform="translate(-2581.687 -1552.258)" fill="none" stroke="#050505" stroke-linecap="round" stroke-miterlimit="10" stroke-width="6"/><path d="M2607.291,1550.621h-3.214a.757.757,0,0,0-.677.418l-1.074,2.148a.757.757,0,0,1-.677.419h-.719a.757.757,0,0,0-.75.658l-.424,3.221a.757.757,0,0,1-.75.658h-2.25a.757.757,0,0,0-.719.522l-1.808,5.524a.757.757,0,0,1-.719.521h0a.757.757,0,0,0-.673,1.1l1.058,2.05a.757.757,0,0,1-.2.935l-1.5,1.211a.757.757,0,0,0-.157,1l1.707,2.6a.757.757,0,0,1-.232,1.057l-2.446,1.529a.757.757,0,0,0-.192,1.112l1.669,2.1a.757.757,0,0,1-.222,1.13l-2.066,1.162a.757.757,0,0,0-.1,1.252l2.075,1.647a.757.757,0,0,1-.236,1.312l-3.05.993a.756.756,0,0,0-.449,1.045,1.6,1.6,0,0,0,.779.869c.5.167-1.329,1.382-2.478,2.1a.757.757,0,0,0-.1,1.207l1.867,1.667a.756.756,0,0,1-.072,1.185l-2.06,1.435a.757.757,0,0,0-.269.906l.95,2.336a.756.756,0,0,1-.339.95l-1.379.753a.757.757,0,0,0-.308,1.016l1.708,3.254a.757.757,0,0,1-.494,1.088l-.572.136a.757.757,0,0,0-.48,1.114l1.006,1.743a.757.757,0,0,1-.1.891l-2,2.172a.757.757,0,0,0,.01,1.037l1.425,1.485a.757.757,0,0,1-.392,1.265l-.925.192a.757.757,0,0,0-.6.741v2.54a.757.757,0,0,1-.518.718l-1.775.592a.757.757,0,0,0-.245,1.3l1.795,1.5a.757.757,0,0,1-.037,1.192l-2.292,1.681a.756.756,0,0,0-.232.942l.63,1.29a.757.757,0,0,1-.254.958l-2.783,1.894a.757.757,0,0,0,.033,1.273l2.264,1.372a.757.757,0,0,1,.242,1.061l-1.364,2.091" transform="translate(-2573.91 -1549.745)" fill="none" stroke="#050505" stroke-linecap="round" stroke-miterlimit="10" stroke-width="6"/><path d="M2597.266,1552.039h-1.12a1.07,1.07,0,0,0-1.066.964l-.085.845a1.071,1.071,0,0,1-1.276.944l-1.142-.228a1.071,1.071,0,0,0-1.281,1.05v.488a1.071,1.071,0,0,1-1.071,1.071h-.816a1.071,1.071,0,0,0-1,1.465l.395,1a1.071,1.071,0,0,1-.732,1.432c-.758.191-1.609.447-1.675.643a10.438,10.438,0,0,0,.548,2.409,1.07,1.07,0,0,1-.628,1.3l-2.037.815a1.071,1.071,0,0,0-.494,1.589l.979,1.468a1.069,1.069,0,0,1,.178.659l-.177,2.921a1.072,1.072,0,0,1-.648.92l-.539.231a1.071,1.071,0,0,0-.382,1.693l.068.077a1.071,1.071,0,0,1-.134,1.545l-.293.234a1.072,1.072,0,0,0-.325,1.234l.533,1.332a1.071,1.071,0,0,1-.516,1.356l-1.176.588a1.071,1.071,0,0,0-.433,1.52l.674,1.1a1.071,1.071,0,0,1-.447,1.527l-.9.432a1.071,1.071,0,0,0-.348,1.663l1.1,1.278a1.071,1.071,0,0,1-.3,1.639l-.581.315a1.071,1.071,0,0,0-.331,1.6l1.413,1.794a1.07,1.07,0,0,1-.462,1.664l-1.351.512a1.071,1.071,0,0,0-.528,1.571l.557.888a1.071,1.071,0,0,1-.475,1.549l-1.453.641a1.071,1.071,0,0,0-.3,1.757l.661.627a1.071,1.071,0,0,1,.31,1l-.381,1.754a1.068,1.068,0,0,1-.41.633c-.669.5-2.092,1.64-1.35,1.919a8.349,8.349,0,0,1,1.016.484,1.072,1.072,0,0,1,.148,1.786l-.8.624a1.072,1.072,0,0,0-.367,1.149l.124.415a1.072,1.072,0,0,1-.476,1.223l-1.254.753a1.071,1.071,0,0,0-.306,1.561l.711.948a1.071,1.071,0,0,1-.623,1.688l-.213.048a1.072,1.072,0,0,0-.524,1.8h0a1.071,1.071,0,0,1-.132,1.627l-1.46,1.049a1.071,1.071,0,0,0,.083,1.794l.86.5a1.071,1.071,0,0,1,.232,1.665,10.452,10.452,0,0,0-1.319,1.536c-.119.358,1.671,1.672,1.671,1.672" transform="translate(-2570.313 -1550.566)" fill="none" stroke="#050505" stroke-linecap="round" stroke-miterlimit="10" stroke-width="6"/><path d="M2586.084,1570.467l-2.48.4a1.106,1.106,0,0,0-.89,1.388l.565,2.036a1.106,1.106,0,0,1-.775,1.364l-2.052.56a1.107,1.107,0,0,0-.815,1.068v3.131a1.107,1.107,0,0,1-.3.761l-1.543,1.629a1.106,1.106,0,0,0-.3.761v5.5a1.107,1.107,0,0,1-.838,1.074l-.4.1a1.106,1.106,0,0,0-.785,1.412l.42,1.308a1.1,1.1,0,0,1-.527,1.312,3.31,3.31,0,0,0-1.33,1.031c-.149.371.951,1.621,1.8,2.513a1.106,1.106,0,0,1-.2,1.691l-.883.573a1.107,1.107,0,0,0-.439,1.3l.681,1.9a1.106,1.106,0,0,1-.6,1.39l-1.33.573a1.106,1.106,0,0,0-.5,1.6l.288.465a1.107,1.107,0,0,1-.369,1.53l-1.04.629a1.105,1.105,0,0,0-.421,1.434l1.322,2.694a1.106,1.106,0,0,1-.278,1.332l-1.4,1.186a1.107,1.107,0,0,0-.161,1.521l.733.948a1.106,1.106,0,0,1-.165,1.524l-1.863,1.563a1.106,1.106,0,0,0,.01,1.7l.926.757a1.107,1.107,0,0,1,.3,1.326l-1.425,3.041" transform="translate(-2568.802 -1561.234)" fill="none" stroke="#050505" stroke-linecap="round" stroke-miterlimit="10" stroke-width="6"/><path d="M2673.063,1571.581l1.787-.876a.317.317,0,0,1,.4.1l1.182,1.674a.317.317,0,0,0,.259.134h0a.317.317,0,0,1,.251.511c-.491.636-1.149,1.638-.415,1.638,1.074,0,2.746.836,2.746,1.194s-1.074,3.821,0,4.3a8.939,8.939,0,0,1,2.127,1.535.317.317,0,0,1,.086.322l-.605,2.017a.317.317,0,0,0,.081.318c.464.454,1.92,1.934,1.416,2.136-.453.182-.7,1.119-.793,1.561a.316.316,0,0,0,.154.34c.665.38,2.741,1.636,1.833,2.04a8.726,8.726,0,0,0-1.656.993.316.316,0,0,0-.058.447c.43.551,1.4,1.861,1.117,2.142s-2.034,1.727-2.714,2.286a.317.317,0,0,0-.023.469l2.363,2.363a.317.317,0,0,1-.132.528l-1.646.5a.317.317,0,0,0-.1.556l2.167,1.647a.317.317,0,0,1,.006.5l-3.334,2.678a.318.318,0,0,0-.015.482l1.868,1.706a.317.317,0,0,1-.214.552h-.068a.317.317,0,0,0-.221.546l1.013.979a.318.318,0,0,1,.021.433l-1.611,1.895a.318.318,0,0,0,.061.466l2.276,1.581a.318.318,0,0,1,.051.478l-1.875,2a.318.318,0,0,0,.061.485l1.843,1.172a.317.317,0,0,1-.02.548c-.934.5-2.868,1.565-2.5,1.656s2.989,1.553,4.238,2.256a.317.317,0,0,1-.067.581l-2.362.686a.317.317,0,0,0-.1.559l2.839,2.107a.318.318,0,0,1,0,.512l-1.556,1.124a.317.317,0,0,0-.082.427l2.562,4.058a.318.318,0,0,1-.058.406l-1.734,1.542a.317.317,0,0,0-.048.422l2.665,3.731a.317.317,0,0,1-.031.406l-1.75,1.8a.317.317,0,0,0,0,.442c.486.5,1.654,1.706,1.935,1.988s-1.335,1.871-2.055,2.554a.317.317,0,0,0,.078.514l2.009.991" transform="translate(-2629.155 -1561.353)" fill="none" stroke="#050505" stroke-linecap="round" stroke-miterlimit="10" stroke-width="6"/><path d="M2662.267,1583.594l1.463-1.349a.317.317,0,0,1,.411-.016l1.611,1.268a.316.316,0,0,0,.287.055h0a.317.317,0,0,1,.386.419c-.29.749-.634,1.9.069,1.688,1.03-.306,2.87.018,2.973.362s.059,3.969,1.225,4.12a8.95,8.95,0,0,1,2.476.865.316.316,0,0,1,.175.284l-.005,2.106a.316.316,0,0,0,.168.281c.574.3,1.279,3.122.853,3.458" transform="translate(-2622.906 -1568.003)" fill="none" stroke="#050505" stroke-linecap="round" stroke-miterlimit="10" stroke-width="6"/><path d="M2682.392,1658.927l-.59,3.03a1.313,1.313,0,0,0,.013.9l.4,1.04a1.314,1.314,0,0,1-.052,1.057l-.125.25a1.314,1.314,0,0,0,.183,1.448l.1.116a1.313,1.313,0,0,1-.152,1.869l-.409.341a1.314,1.314,0,0,0-.217,1.788l1.574,2.139a1.313,1.313,0,0,1-.3,1.855h0a1.314,1.314,0,0,0-.173,2.008l1.621,1.612a1.314,1.314,0,0,1,.387.931V1681a1.317,1.317,0,0,0,.216.722l.962,1.463" transform="translate(-2633.914 -1612.44)" fill="none" stroke="#050505" stroke-linecap="round" stroke-miterlimit="10" stroke-width="6"/><path d="M2674.637,1665.3l-.59,2.917a1.22,1.22,0,0,0,.012.871l.4,1a1.222,1.222,0,0,1-.052,1.018l-.125.241a1.229,1.229,0,0,0,.182,1.394l.1.112a1.233,1.233,0,0,1-.152,1.8l-.409.328a1.233,1.233,0,0,0-.217,1.722l1.574,2.06a1.235,1.235,0,0,1-.3,1.786h0a1.236,1.236,0,0,0-.173,1.933l1.62,1.552a1.239,1.239,0,0,1,.387.9v1.625a1.234,1.234,0,0,0,.216.695l.962,1.408" transform="translate(-2629.424 -1616.13)" fill="none" stroke="#050505" stroke-linecap="round" stroke-miterlimit="10" stroke-width="5.887"/><path d="M2669,1562.972l2.6-.857a1.157,1.157,0,0,1,1.163.266l2.517,2.424a1.156,1.156,0,0,0,.478.277l.941.275a1.156,1.156,0,0,1,.832,1.109v2.129a1.154,1.154,0,0,0,.088.442c.3.722,1.284,3.028,1.687,3.129.306.077.563.888.708,1.461a1.151,1.151,0,0,1-.219,1l-.362.452a1.156,1.156,0,0,0,.183,1.627l.794.631a1.156,1.156,0,0,1,.227,1.568l-.6.857a1.156,1.156,0,0,0,.035,1.374l1.852,2.375a1.148,1.148,0,0,1,.06,1.337,2.109,2.109,0,0,1-.766.688c-.655.356-.071,1.433.458,2.191a1.152,1.152,0,0,1-.177,1.512l-.871.788a1.156,1.156,0,0,0-.094,1.618l.993,1.135a1.157,1.157,0,0,1-.115,1.636l-1.076.929a1.156,1.156,0,0,0-.286,1.377l1.209,2.5a1.152,1.152,0,0,1,.1.343c.108.774.493,3.766-.026,3.818-.292.029.326.441,1.035.857a1.156,1.156,0,0,1,.084,1.941l-.179.126a1.156,1.156,0,0,0-.225,1.678l1.164,1.415a1.156,1.156,0,0,1-.174,1.639h0a1.156,1.156,0,0,0-.024,1.791l.72.6a1.155,1.155,0,0,1,.347,1.271c-.143.4-.3.856-.361,1.036-.081.241.864,1.29,1.492,1.953a1.156,1.156,0,0,1,.215,1.271l-.725,1.607a1.156,1.156,0,0,0,.293,1.346l1.226,1.072a1.155,1.155,0,0,1,.233,1.459l-.892,1.505a1.156,1.156,0,0,0,.3,1.514l1.511,1.133a1.155,1.155,0,0,1,.172,1.69l-1.142,1.291a1.157,1.157,0,0,0,.109,1.64l.358.31a1.157,1.157,0,0,1,.357,1.18l-.909,3.306a1.16,1.16,0,0,0,.26,1.085.925.925,0,0,1,.245.638" transform="translate(-2626.802 -1556.365)" fill="none" stroke="#050505" stroke-linecap="round" stroke-miterlimit="10" stroke-width="6"/><path d="M2649.846,1550.293c0-.215.944-.988,1.7-1.572a.86.86,0,0,1,1.33.379s2.43.57,2.889.226h0a.859.859,0,0,1,1.341.446l.493,1.682a.86.86,0,0,0,1.268.5l.618-.371a.86.86,0,0,1,1.09.171l1.923,2.2a.864.864,0,0,0,.263.2l1.759.879" transform="translate(-2615.716 -1548.542)" fill="none" stroke="#050505" stroke-linecap="round" stroke-miterlimit="10" stroke-width="6"/><path d="M2645.1,1572.83c-1.115,0-3.025.8-2.706,1.91a1.787,1.787,0,0,1-1.115,2.07c-.288.1-.229.884-.136,1.5a1.038,1.038,0,0,1-.563,1.082h0a1.039,1.039,0,0,0-.574.929v2.732a1.04,1.04,0,0,1-.324.754l-.748.708a1.04,1.04,0,0,0-.293,1.006l.59,2.358a1.039,1.039,0,0,1-.257.97l-.893.936a1.038,1.038,0,0,0-.262.943l.508,2.288a1.038,1.038,0,0,1-.505,1.131l-1.214.683a1.038,1.038,0,0,0-.508,1.115l.27,1.312a1.04,1.04,0,0,1-.4,1.046l-.4.295a1.039,1.039,0,0,0-.385,1.115l.569,2.04a1.038,1.038,0,0,1-.387,1.118l-.8.582a1.038,1.038,0,0,0-.327,1.282l.659,1.395a1.039,1.039,0,0,1-.24,1.212l-.643.584a1.039,1.039,0,0,0-.262,1.164l.492,1.193a1.04,1.04,0,0,1-.44,1.295l-.029.017a1.038,1.038,0,0,0-.479,1.18l.307,1.094a1.039,1.039,0,0,1-.368,1.105l-.856.656a1.038,1.038,0,0,0-.077,1.583l.124.116a1.038,1.038,0,0,1,.04,1.479l-1.534,1.6a1.039,1.039,0,0,0-.09,1.33l.8,1.1a1.039,1.039,0,0,1-.212,1.438l-1.675,1.271a1.039,1.039,0,0,0-.086,1.583l.386.364a1.039,1.039,0,0,1-.068,1.569l-1.73,1.372a1.039,1.039,0,0,0-.186,1.437l.448.6a1.037,1.037,0,0,1,.105,1.073l-.816,1.7a1.038,1.038,0,0,0,.258,1.236l1.966,1.694a1.039,1.039,0,0,1,.015,1.56l-1.867,1.674a1.038,1.038,0,0,0-.122,1.417,6.691,6.691,0,0,0,1.555,1.613c.318.079-.743,1.486-1.486,2.414a1.038,1.038,0,0,0,.167,1.464l.545.43a1.039,1.039,0,0,1,.11,1.531l-.817.86a1.039,1.039,0,0,0-.013,1.417l1.042,1.136a1.038,1.038,0,0,1-.3,1.631l-.016.008a1.039,1.039,0,0,0-.221,1.709l1.827,1.608" transform="translate(-2602.9 -1562.601)" fill="none" stroke="#050505" stroke-linecap="round" stroke-miterlimit="10" stroke-width="6"/></g><path d="M2976.469,1401.343c.434,1.36-1.609,2.784-1.609,2.784s0,3.213-2.224,3.9c.644,1.706.13,6.085-.51,9.884-.252,1.5-.524,2.9-.752,4.022a5.56,5.56,0,0,1-2.682,3.714h0c1.947-3.4,1.231-6.38.3-7.563a2.244,2.244,0,0,0-1.428-.872c-2.067-.341-3.268.291-3.941,1.323-1.479,2.257-2.63-3.53-4.458-8.158-6.25,8.885-22.253-.627-27.309,8.258-2.136-.919-5.749-3.41-3.117-11.623s12.594-14.529,24.047-13.885a8.731,8.731,0,0,1-.316-8.684c1.369-2.8,3.815-4.742,5.323-4.611.8-1.36,4.7-1.36,5.689.619a6.331,6.331,0,0,1,5.129,2.224s.931-.244,3.34.8a1.7,1.7,0,0,1,.952,2.2,6.782,6.782,0,0,1-1.074,2.131,24.132,24.132,0,0,1,5.441,3.091c2.657,2.043,1.049,4.266,1.049,4.266a9.925,9.925,0,0,1,1.92,3.4C2980.486,1399.983,2978.57,1401.343,2976.469,1401.343Z" transform="translate(-223.606)" fill="url(#ab)"/></g></g></svg>