<svg xmlns="http://www.w3.org/2000/svg" xmlns:xlink="http://www.w3.org/1999/xlink" width="1440" height="256" viewBox="0 0 1440 256"><defs><clipPath id="a"><circle cx="92.67" cy="92.67" r="92.67" fill="none"/></clipPath></defs><g transform="translate(-240)"><path d="M0,0H1440a0,0,0,0,1,0,0V238a18,18,0,0,1-18,18H18A18,18,0,0,1,0,238V0A0,0,0,0,1,0,0Z" transform="translate(240)" fill="#f8f8f8"/><text transform="translate(342 194)" font-size="48" font-family="Roboto-Bold, Roboto" font-weight="700"><tspan x="0" y="0">HOW TO PROTECT YOURSELF</tspan></text><rect width="154" height="46" rx="9" transform="translate(296 56)" fill="#fff"/><text transform="translate(349 88)" fill="#3e3c9c" font-size="28" font-family="Roboto-Bold, Roboto" font-weight="700"><tspan x="0" y="0">Back</tspan></text><path d="M13.5,0,27,14H0Z" transform="translate(322 92) rotate(-90)" fill="#3e3c9c"/><g transform="translate(969.821 -193.746)"><g transform="translate(487.046 243.746)" clip-path="url(#a)"><circle cx="92.67" cy="92.67" r="92.67" fill="#790000"/><g transform="translate(37.19 9.96)"><g transform="translate(14.146)"><path d="M531.333,437.8q4.368-22.89,8.736-45.779c.616-3.224,1.233-6.52.731-9.786-.912-5.94-5.318-10.807-7.8-16.339-3.307-7.379-3.08-15.727-1.887-23.6s3.295-15.629,3.545-23.6c.218-6.943-.974-13.881-2.3-20.74-1.3-6.762-2.926-18.58,1.13-20,7.137-1.672,9.061,8.755,10.541,14.818s3.278,30.786,5.306,28.433c3.087-12.538,6.623-35.787,9.71-48.325.491-1.995,1.042-4.095,2.526-5.534s4.233-1.853,5.663-.3a4.7,4.7,0,0,1,1.028,3.71c-1.429,12.114-5.045,22.347-4.337,33.734.081,1.285.342,2.746,1.459,3.455,4.326-16.955,6.375-33.679,10.852-50.217a9.663,9.663,0,0,1,2.015-4.3,3.757,3.757,0,0,1,4.459-.879,4.358,4.358,0,0,1,1.567,1.939c1.368,2.892,1.236,6.192.956,9.331-1.43,15.967-6.024,31.681-5.064,47.732,3.64-.1,5.645-14.525,6.353-17.489,1.783-7.475,2.908-15.759,5.376-23.034.482-1.418,1.088-2.963,2.456-3.632,3.539-1.732,6.289,3.675,6.361,7.563.388,20.972-6.917,41.149-9.382,61.924-.375,3.164.52,7.655,3.8,7.6,1.519-.025,2.718-1.158,3.77-2.2a151.8,151.8,0,0,1,21.358-17.645c2.386-1.63,4.992-3.25,7.935-3.327s6.192,2.046,6.183,4.911a45.668,45.668,0,0,0-17.573,19.972c-2.908,6.474-4.363,13.786-9.046,19.162-5.16,5.922-13.355,8.465-19.359,13.578-7.07,6.023-10.577,15.251-11.457,24.433s.6,18.455,2.078,27.614Z" transform="translate(-530.312 -252.14)" fill="#432b1b"/></g><g transform="translate(7.2 58.509)"><path d="M577.589,310.028a8.576,8.576,0,1,1-8.576-8.576A8.576,8.576,0,0,1,577.589,310.028Z" transform="translate(-517.748 -301.452)" fill="#fff"/><path d="M541.61,350.406a8.576,8.576,0,1,1-8.576-8.576A8.576,8.576,0,0,1,541.61,350.406Z" transform="translate(-524.458 -293.921)" fill="#fff"/><path d="M595.829,312.571a8.576,8.576,0,1,1-8.576-8.576A8.576,8.576,0,0,1,595.829,312.571Z" transform="translate(-514.346 -300.978)" fill="#fff"/><path d="M564.167,317.433a6.21,6.21,0,1,1-6.21-6.21A6.21,6.21,0,0,1,564.167,317.433Z" transform="translate(-519.368 -299.63)" fill="#fff"/><path d="M542.486,357.968a6.21,6.21,0,1,1-6.21-6.21A6.211,6.211,0,0,1,542.486,357.968Z" transform="translate(-523.412 -292.07)" fill="#fff"/><path d="M548.613,346.862a6.21,6.21,0,1,1-6.21-6.21A6.21,6.21,0,0,1,548.613,346.862Z" transform="translate(-522.269 -294.141)" fill="#fff"/><path d="M602.816,320.368a6.21,6.21,0,1,1-6.209-6.21A6.21,6.21,0,0,1,602.816,320.368Z" transform="translate(-512.16 -299.082)" fill="#fff"/><path d="M607.373,336.394a6.21,6.21,0,1,1-6.21-6.21A6.21,6.21,0,0,1,607.373,336.394Z" transform="translate(-511.31 -296.093)" fill="#fff"/><path d="M609.229,331.16a6.21,6.21,0,1,1-6.21-6.21A6.21,6.21,0,0,1,609.229,331.16Z" transform="translate(-510.964 -297.069)" fill="#fff"/><path d="M551.131,304.314a3.041,3.041,0,1,1,1.592,3.995A3.04,3.04,0,0,1,551.131,304.314Z" transform="translate(-519.53 -301.261)" fill="#fff"/><path d="M534.791,333.432a3.041,3.041,0,1,1,1.592,3.995A3.041,3.041,0,0,1,534.791,333.432Z" transform="translate(-522.577 -295.831)" fill="#fff"/><path d="M613.4,323.9a3.042,3.042,0,1,1,1.594,3.995A3.042,3.042,0,0,1,613.4,323.9Z" transform="translate(-507.917 -297.608)" fill="#fff"/><path d="M603,310.641a3.041,3.041,0,1,1-3.041-3.041A3.041,3.041,0,0,1,603,310.641Z" transform="translate(-510.944 -300.305)" fill="#fff"/><g transform="translate(3.441 4.58)"><circle cx="19.963" cy="19.963" r="19.963" transform="matrix(0.226, -0.974, 0.974, 0.226, 27.884, 38.893)" fill="#fff"/><circle cx="13.279" cy="13.279" r="13.279" transform="translate(14.709 28.697) rotate(-22.5)" fill="#fff"/><circle cx="13.279" cy="13.279" r="13.279" transform="translate(51.297 20.144) rotate(-45)" fill="#fff"/><circle cx="13.279" cy="13.279" r="13.279" transform="translate(0 53.532) rotate(-45)" fill="#fff"/><path d="M564.791,349.955a4.88,4.88,0,1,1,4.879,4.879A4.879,4.879,0,0,1,564.791,349.955Z" transform="translate(-520.377 -297.896)" fill="#fff"/><circle cx="9.005" cy="9.005" r="9.005" transform="translate(23.832 42.027)" fill="#fff"/><path d="M586.1,338.805a3.495,3.495,0,1,1,3.494,3.494A3.5,3.5,0,0,1,586.1,338.805Z" transform="translate(-516.402 -299.718)" fill="#fff"/><path d="M559.678,363.62a3.495,3.495,0,1,1,3.494,3.494A3.494,3.494,0,0,1,559.678,363.62Z" transform="translate(-521.33 -295.089)" fill="#fff"/></g><g transform="translate(23.468 13.329)"><circle cx="19.963" cy="19.963" r="19.963" transform="translate(20.806 28.232) rotate(-45)" fill="#fff"/><circle cx="13.279" cy="13.279" r="13.279" transform="translate(10.491 40.948) rotate(-47.415)" fill="#fff"/><circle cx="13.279" cy="13.279" r="13.279" transform="translate(53.993 11.138)" fill="#fff"/><circle cx="13.279" cy="13.279" r="13.279" transform="matrix(0.23, -0.973, 0.973, 0.23, 0, 67.677)" fill="#fff"/><path d="M579.306,360.929a4.88,4.88,0,1,1,4.879,4.88A4.88,4.88,0,0,1,579.306,360.929Z" transform="translate(-537.696 -304.598)" fill="#fff"/><circle cx="9.005" cy="9.005" r="9.005" transform="translate(18.304 50.341) rotate(-22.059)" fill="#fff"/><path d="M600.614,349.779a3.495,3.495,0,1,1,3.494,3.5A3.495,3.495,0,0,1,600.614,349.779Z" transform="translate(-533.722 -306.419)" fill="#fff"/><path d="M574.193,374.6a3.495,3.495,0,1,1,3.494,3.494A3.494,3.494,0,0,1,574.193,374.6Z" transform="translate(-538.65 -301.791)" fill="#fff"/></g></g><g transform="translate(0 39.115)"><path d="M596.474,477.106l.8-46.6c.057-3.282.126-6.635,1.284-9.729,2.107-5.628,7.414-9.493,10.972-14.4,4.745-6.547,6.228-14.766,6.668-22.717s-.032-15.972,1.351-23.829c1.206-6.841,3.79-13.389,6.487-19.834,2.658-6.353,6.66-17.59,2.979-19.805-6.644-3.094-10.66,6.719-13.346,12.352s-9.5,29.468-11,26.751c-.462-12.9.827-36.387.367-49.291-.074-2.053-.183-4.22-1.342-5.934s-3.766-2.679-5.483-1.45a4.7,4.7,0,0,0-1.763,3.422c-1.077,12.151.372,22.907-2.647,33.908-.341,1.241-.9,2.617-2.135,3.084-.771-17.481.641-34.271-.364-51.373a9.658,9.658,0,0,0-1.092-4.624,3.758,3.758,0,0,0-4.186-1.771,4.354,4.354,0,0,0-1.93,1.578c-1.93,2.551-2.476,5.808-2.842,8.938-1.863,15.922-.577,32.243-4.795,47.76-3.544-.842-2.559-15.372-2.647-18.418-.218-7.681.374-16.021-.556-23.646-.182-1.487-.459-3.123-1.662-4.058-3.111-2.419-6.907,2.313-7.772,6.1-4.664,20.449-1.635,41.693-3.467,62.534-.28,3.174-2.073,7.387-5.274,6.663-1.482-.335-2.425-1.688-3.242-2.926a151.615,151.615,0,0,0-17.3-21.637c-2-2.083-4.223-4.2-7.088-4.878s-6.481.737-7.056,3.544a45.669,45.669,0,0,1,13.123,23.142c1.523,6.932,1.455,14.386,4.941,20.606,3.839,6.852,11.343,11.014,16.176,17.248,5.69,7.339,7.238,17.089,6.223,26.256s-4.358,17.944-7.676,26.607Z" transform="translate(-518.39 -285.107)" fill="#9e4300"/></g><g transform="translate(3.645 43.611)"><path d="M603.4,323.659s3.995.6,5.208,2.194a23.771,23.771,0,0,0,2.241-7.274s-2.232-2.569-5.051-1.228Z" transform="translate(-506.18 -283.662)" fill="#f9e0d2"/><path d="M583.913,308.606a7.183,7.183,0,0,1,4.791-.125l-.294-4.809s-2.438-2.8-4.534-.136Z" transform="translate(-509.821 -286.38)" fill="#f9e0d2"/><path d="M571.737,295.524a8.136,8.136,0,0,1,5.377.7l.514-5.427s-2.234-3.552-5.044-.947Z" transform="translate(-512.085 -288.896)" fill="#f9e0d2"/><path d="M556.629,304.941a8.344,8.344,0,0,1,5.517.719l.527-5.568s-2.292-3.645-5.174-.972Z" transform="translate(-514.903 -287.172)" fill="#f9e0d2"/><path d="M526.085,344.154s.6-2.488,5.2-3l-4.383-4.691s-3.995-1.025-5.439,2.123Z" transform="translate(-521.462 -280.054)" fill="#f9e0d2"/></g></g><circle cx="92.67" cy="92.67" r="92.67" transform="translate(1.187 -4.746)" fill="none"/></g></g></g></svg>