<svg xmlns="http://www.w3.org/2000/svg" width="64" height="64" viewBox="0 0 64 64">
  <g id="icon_3" transform="translate(-359.889 -407.937)">
    <circle id="Ellipse_4" data-name="Ellipse 4" cx="32" cy="32" r="32" transform="translate(359.889 407.937)"/>
    <g id="Group_52" data-name="Group 52" transform="translate(382.001 425.378)">
      <path id="Path_107" data-name="Path 107" d="M377.586,420.3a10.333,10.333,0,0,1,5.7-1.493,12.278,12.278,0,0,1,7.384,2.124,7.264,7.264,0,0,1,2.94,6.293,7.131,7.131,0,0,1-1.274,4.307,14.709,14.709,0,0,1-2.865,2.713l-1.391,1.081a4.23,4.23,0,0,0-1.511,2.064,8.708,8.708,0,0,0-.255,2.321h-5.329a15.452,15.452,0,0,1,.627-4.591,8.094,8.094,0,0,1,2.628-2.919l1.431-1.123a4.974,4.974,0,0,0,1.137-1.16,3.961,3.961,0,0,0,.784-2.379,4.6,4.6,0,0,0-.873-2.724,3.659,3.659,0,0,0-3.187-1.229,3.511,3.511,0,0,0-3.227,1.514,5.824,5.824,0,0,0-.953,3.146h-5.682Q373.91,422.645,377.586,420.3Zm3.264,22.1h5.881v5.682h-5.881Z" transform="translate(-373.674 -418.81)" fill="#fff"/>
    </g>
  </g>
</svg>
