<svg xmlns="http://www.w3.org/2000/svg" width="1440" height="258.555" viewBox="0 0 1440 258.555"><g transform="translate(-240)"><path d="M0,0H1440a0,0,0,0,1,0,0V238a18,18,0,0,1-18,18H18A18,18,0,0,1,0,238V0A0,0,0,0,1,0,0Z" transform="translate(240)" fill="#f8f8f8"/><text transform="translate(342 194)" font-size="48" font-family="Roboto-Bold, Roboto" font-weight="700"><tspan x="0" y="0">WHAT IS COVID-19?</tspan></text><g transform="translate(1160.013 -442.92)"><path d="M343.494,622.191c17.431,27.39,55.339,39.6,85.475,27.518s49.127-47.08,42.821-78.928c-4.773-24.107-23.01-44.973-46.1-53.381-24.926-9.077-60.044-4.826-75.472,18.5C333.081,561.806,325.774,594.346,343.494,622.191Z" transform="translate(6.123 6.505)" fill="#fb7f1c"/><path d="M470.727,568.2c-3.4-17.195-13.663-32.738-27.644-43.291a68.412,68.412,0,0,1,5.951,17.288c6.307,31.849-12.684,66.852-42.82,78.93-22.23,8.907-48.677,4.592-68.026-9.271a66.6,66.6,0,0,0,4.243,7.754c17.431,27.39,55.339,39.6,85.475,27.518S477.033,600.045,470.727,568.2Z" transform="translate(7.187 9.089)" fill="#f27825"/><path d="M411.37,532.66c11,8.323,31.8-31.209,31.8-31.209l7.42,5.56s-32.1,31.069-21.023,39.287" transform="translate(23.029 4.012)" fill="#fb7f1c"/><path d="M450.375,510.173c2.336-10.077-15.186-19.887-17.492-8.789C430.654,512.121,447.672,521.835,450.375,510.173Z" transform="translate(27.643 2.934)" fill="#fb7f1c"/><path d="M441.4,499.335c-1.955-2.8-8.237-.674-6.024,2.347C437.517,504.6,443.664,502.578,441.4,499.335Z" transform="translate(28.125 3.27)" fill="#dd6514"/><path d="M449.6,502.926a8.269,8.269,0,0,1-.21,1.82c-2.145,9.254-13.291,5.047-16.7-2.446.224,9.786,15.163,17.479,17.683,6.613A9.041,9.041,0,0,0,449.6,502.926Z" transform="translate(27.644 4.195)" fill="#dd620e"/><path d="M440.818,567.627c-1.251,13.734,43.3,10.5,43.3,10.5l-.8,9.238s-43.34-10.824-44.462,2.921" transform="translate(28.98 18.337)" fill="#fb7f1c"/><path d="M477.476,591.382c9.788-3.343,8.852-23.4-1.787-19.493C465.4,575.672,466.146,595.253,477.476,591.382Z" transform="translate(35.384 19.151)" fill="#fb7f1c"/><path d="M480.468,578.257c1.345-3.14-3.782-7.348-5.176-3.873C473.943,577.745,478.911,581.892,480.468,578.257Z" transform="translate(36.817 19.517)" fill="#dd6514"/><path d="M482.147,587.295a8.318,8.318,0,0,1-1.657.783c-8.99,3.07-11.311-8.615-6.749-15.466-8.189,5.362-6.823,22.112,3.735,18.5A9.048,9.048,0,0,0,482.147,587.295Z" transform="translate(35.385 19.416)" fill="#dd620e"/><path d="M426.971,606.4c-9.724,4.671,10.327,33.292,10.327,33.292l-6.523,3.171s-10.123-33.448-19.8-28.686" transform="translate(22.943 26.729)" fill="#fb7f1c"/><path d="M425.14,640.184c6.174,5.231,19.269-3.446,12.373-9.021C430.842,625.768,417.994,634.13,425.14,640.184Z" transform="translate(25.555 31.715)" fill="#fb7f1c"/><path d="M433.619,637.4c2.648-.358,3.417-5.489.524-5.031C431.344,632.817,430.553,637.817,433.619,637.4Z" transform="translate(27.42 32.346)" fill="#dd6514"/><path d="M429.581,641.787a6.532,6.532,0,0,1-1.191-.8c-5.669-4.8,1.247-11.053,7.678-10.739-6.888-3.346-17.587,4.292-10.929,9.934A7.077,7.077,0,0,0,429.581,641.787Z" transform="translate(25.555 31.716)" fill="#dd620e"/><path d="M406.939,620.538c-13.786.348-5.415,44.229-5.415,44.229l-9.267.277s5.732-44.3-8.051-43.826" transform="translate(17.149 29.791)" fill="#fb7f1c"/><path d="M387.086,659.809c4.453,9.335,24.271,6.084,19.155-4.031C401.292,645.992,381.929,649,387.086,659.809Z" transform="translate(17.585 36.136)" fill="#fb7f1c"/><path d="M391.424,664.006a8.194,8.194,0,0,1-.971-1.555c-4.091-8.573,7.248-12.232,14.581-8.495-6.275-7.513-22.753-4.215-17.948,5.852A9.04,9.04,0,0,0,391.424,664.006Z" transform="translate(17.585 36.136)" fill="#dd620e"/><path d="M368.522,533.975c12.757-5.239-10.7-43.254-10.7-43.254l8.56-3.562s10.434,43.437,23.142,38.078" transform="translate(11.436 0.918)" fill="#fb7f1c"/><path d="M371.493,485.351c-7.489-7.135-24.845,2.967-16.46,10.594C363.144,503.324,380.162,493.609,371.493,485.351Z" transform="translate(10.35 0)" fill="#fb7f1c"/><path d="M357.765,486.542c-3.406.259-4.767,6.75-1.041,6.382C360.327,492.566,361.709,486.243,357.765,486.542Z" transform="translate(10.717 0.782)" fill="#dd6514"/><path d="M365.23,482.965a8.282,8.282,0,0,1,1.461,1.107c6.878,6.552-2.411,14.013-10.6,13.134,8.541,4.782,22.761-4.171,14.684-11.865A9.047,9.047,0,0,0,365.23,482.965Z" transform="translate(11.064 0.01)" fill="#dd620e"/><path d="M349.446,569.082c4.58-13.009-39.409-20.8-39.409-20.8l3.039-8.76s39.364,21.12,43.822,8.069" transform="translate(1.093 12.253)" fill="#fb7f1c"/><path d="M314.816,535.568c-10.31.842-14.321,20.518-3.048,19.337C322.675,553.761,326.749,534.594,314.816,535.568Z" transform="translate(0 11.389)" fill="#fb7f1c"/><path d="M307.072,545.012c-2.073,2.715,1.866,8.051,4.069,5.024C313.274,547.108,309.473,541.87,307.072,545.012Z" transform="translate(0.325 13.231)" fill="#dd6514"/><path d="M308.573,538.129a8.273,8.273,0,0,1,1.8-.354c9.467-.772,8.852,11.126,2.75,16.65,9.254-3.192,12.036-19.764.917-18.857A9.045,9.045,0,0,0,308.573,538.129Z" transform="translate(0.776 11.389)" fill="#dd620e"/><path d="M368.125,612.6c-8.069-11.184-39.565,20.5-39.565,20.5L323.1,625.6s39.807-20.276,31.631-31.384" transform="translate(3.921 24.093)" fill="#fb7f1c"/><path d="M320.352,617.962c-5.191,8.947,8.68,23.468,14.141,13.536C339.777,621.888,326.36,607.606,320.352,617.962Z" transform="translate(3.079 28.452)" fill="#fb7f1c"/><path d="M324.315,628.145c1.046,3.252,7.676,3.062,6.449-.474C329.575,624.248,323.1,624.38,324.315,628.145Z" transform="translate(4.151 30.801)" fill="#dd6514"/><path d="M319.335,623.911a8.347,8.347,0,0,1,.736-1.679c4.767-8.215,14.188-.922,15.242,7.242,2.659-9.422-9.364-21.162-14.963-11.513A9.047,9.047,0,0,0,319.335,623.911Z" transform="translate(3.08 28.452)" fill="#dd620e"/><path d="M392.933,524.985c10.274,2.3,12.212-31.75,12.212-31.75l6.914,1.513S399.6,526.495,409.894,528.7" transform="translate(19.038 2.233)" fill="#fb7f1c"/><path d="M414.4,495.657c-1.568-7.739-16.847-9.005-14.935-.566C401.312,503.257,416.21,504.617,414.4,495.657Z" transform="translate(20.415 1.379)" fill="#fb7f1c"/><path d="M404.887,490.791c-2.246-1.327-5.936,2.14-3.443,3.537C403.856,495.681,407.485,492.327,404.887,490.791Z" transform="translate(20.7 1.64)" fill="#dd6514"/><path d="M411.832,491.308a6.306,6.306,0,0,1,.431,1.331c1.44,7.108-7.636,7.715-12.374,3.587,3.254,6.727,16.07,7.341,14.379-1.006A6.9,6.9,0,0,0,411.832,491.308Z" transform="translate(20.544 1.816)" fill="#dd620e"/><path d="M432.33,547.652c5.764,8.812,30.891-14.249,30.891-14.249l3.9,5.906s-31.068,14.072-25.221,22.83" transform="translate(27.566 10.928)" fill="#fb7f1c"/><path d="M465.118,542.767c4.272-6.642-5.8-18.2-10.311-10.818C450.442,539.094,460.174,550.456,465.118,542.767Z" transform="translate(32.194 10.099)" fill="#fb7f1c"/><path d="M461.186,532.757c-.684-2.517-5.747-2.6-4.934.136C457.039,535.544,461.978,535.67,461.186,532.757Z" transform="translate(32.726 10.376)" fill="#dd6514"/><path d="M466.1,537.572a6.289,6.289,0,0,1-.619,1.254c-3.923,6.1-10.853.208-11.372-6.054-2.358,7.091,6.4,16.465,11.008,9.3A6.9,6.9,0,0,0,466.1,537.572Z" transform="translate(32.195 10.792)" fill="#dd620e"/><path d="M384.674,622.806c-8.682-5.958-23.152,24.926-23.152,24.926l-5.855-3.978s23.382-24.829,14.644-30.7" transform="translate(10.971 28.169)" fill="#fb7f1c"/><path d="M352.87,637.87c-1.426,7.767,12.285,14.628,13.65,6.082C367.841,635.685,354.519,628.879,352.87,637.87Z" transform="translate(10.343 32.621)" fill="#fb7f1c"/><path d="M358.556,643.977c1.59,2.068,6.3.223,4.512-2C361.332,639.822,356.715,641.584,358.556,643.977Z" transform="translate(11.504 34.221)" fill="#dd6514"/><path d="M353.672,642.407a6.32,6.32,0,0,1,.1-1.4c1.309-7.132,9.959-4.318,12.82,1.276-.517-7.456-12.183-12.795-13.719-4.417A6.9,6.9,0,0,0,353.672,642.407Z" transform="translate(10.343 32.621)" fill="#dd620e"/><path d="M437.492,595.438c-4.539,9.5,28.216,19,28.216,19l-3.022,6.4s-28.156-19.246-32.605-9.7" transform="translate(27.079 24.357)" fill="#fb7f1c"/><path d="M457.045,621.855c7.895.2,12.547-14.406,3.893-14.429C452.566,607.4,447.908,621.62,457.045,621.855Z" transform="translate(31.835 26.952)" fill="#fb7f1c"/><path d="M462.137,613.581c1.8-1.892-.758-6.264-2.679-4.146C457.6,611.484,460.058,615.771,462.137,613.581Z" transform="translate(33.297 27.265)" fill="#dd6514"/><path d="M461.4,620.323a6.289,6.289,0,0,1-1.394.122c-7.249-.186-5.811-9.169-.729-12.863-7.284,1.668-10.749,14.02-2.236,14.239A6.9,6.9,0,0,0,461.4,620.323Z" transform="translate(31.835 26.986)" fill="#dd620e"/><path d="M351.642,546.092c7.335-7.553-20.668-27.019-20.668-27.019l4.907-5.1s20.534,27.231,27.8,19.608" transform="translate(5.626 6.722)" fill="#fb7f1c"/><path d="M338.7,511.463c-7.416-2.714-16.489,9.644-8.3,12.43C338.326,526.589,347.28,514.6,338.7,511.463Z" transform="translate(4.801 6.095)" fill="#fb7f1c"/><path d="M329.679,515.92c-2.306,1.219-1.282,6.177,1.214,4.784C333.307,519.357,332.348,514.509,329.679,515.92Z" transform="translate(5.066 7.089)" fill="#dd6514"/><path d="M333.222,511.489a6.34,6.34,0,0,1,1.36.331c6.81,2.491,2.579,10.543-3.418,12.421,7.436.747,14.665-9.852,6.666-12.779A6.9,6.9,0,0,0,333.222,511.489Z" transform="translate(5.667 6.096)" fill="#dd620e"/><path d="M349.942,592.6c-1.287-10.451-34.008-.831-34.008-.831l-.9-7.021s34.089,1.067,32.7-9.37" transform="translate(2.175 20.016)" fill="#fb7f1c"/><path d="M314.672,580.361c-6.762,4.078-2.82,18.893,4.486,14.256C326.226,590.129,322.5,575.641,314.672,580.361Z" transform="translate(1.342 20.891)" fill="#fb7f1c"/><path d="M313.042,588.857c-.5,2.561,4.009,4.871,4.489,2.053C317.993,588.184,313.615,585.893,313.042,588.857Z" transform="translate(1.735 22.631)" fill="#dd6514"/><path d="M311.7,583.969a6.3,6.3,0,0,1,1.109-.853c6.21-3.746,9.833,4.6,7.537,10.448,5.243-5.326,1.514-17.6-5.779-13.2A6.9,6.9,0,0,0,311.7,583.969Z" transform="translate(1.452 20.891)" fill="#dd620e"/><path d="M357.2,547a6.654,6.654,0,0,0-3.957.057,4.863,4.863,0,0,0-2.651,3.107,8.894,8.894,0,0,0-.116,4.177,15.662,15.662,0,0,0,9.912,11.738c5.287,1.9,13.146-1.514,11.046-8.181C369.7,552.386,362.447,548.168,357.2,547Z" transform="translate(9.806 13.811)" fill="#fff"/><path d="M424.388,572.981a8.862,8.862,0,0,0,1.288-5.119,6.483,6.483,0,0,0-3.092-4.484,11.867,11.867,0,0,0-5.345-1.585,20.889,20.889,0,0,0-18.534,8.738c-4.27,6.159-2.569,17.462,6.745,17.046C413.146,587.235,421.075,579.337,424.388,572.981Z" transform="translate(19.807 17.059)" fill="#fff"/><path d="M361.709,577.209a10.32,10.32,0,0,0-6.138-.172,7.541,7.541,0,0,0-4.314,4.644,13.8,13.8,0,0,0-.453,6.47A24.308,24.308,0,0,0,365.407,607c8.074,3.294,20.483-1.489,17.661-11.964C380.737,586.384,369.765,579.369,361.709,577.209Z" transform="translate(9.88 20.287)" fill="#fff"/><path d="M373.523,568.481a5.551,5.551,0,0,0-2.035,2.6,4.059,4.059,0,0,0,.631,3.351,7.441,7.441,0,0,0,2.657,2.263,13.075,13.075,0,0,0,12.822-.3c4.006-2.441,5.9-9.34.466-11.465C383.574,563.178,377.033,565.685,373.523,568.481Z" transform="translate(14.366 17.628)" fill="#fff"/><path d="M384.939,599.5a5.073,5.073,0,0,0,1.145,2.8,3.717,3.717,0,0,0,2.95,1.018,6.8,6.8,0,0,0,3-1.085,11.964,11.964,0,0,0,5.581-10.327c-.123-4.29-4.747-8.926-8.9-5.571C385.283,589.109,384.309,595.446,384.939,599.5Z" transform="translate(17.269 22.138)" fill="#fff"/><path d="M380.089,527.458c-2.651.493-5.368,1.348-7.18,3.473-1.9,2.23-2.516,5.612-2.079,8.8a23.1,23.1,0,0,0,3.507,8.9c6.424,10.324,17.72,16.784,28.558,16.33,11.353-.476,22.674-14.34,12.9-26.608C407.725,528.217,390.717,525.481,380.089,527.458Z" transform="translate(14.224 9.512)" fill="#fff"/><g transform="translate(357.208 618.312)"><path d="M347.915,603.74a76,76,0,0,0,11.471,4.238l-10.027-13.76C351.389,596.978,350.459,600.3,347.915,603.74Z" transform="translate(-347.915 -594.219)" fill="#fb7f1c"/></g><g transform="translate(340.058 520.873)"><path d="M427.42,526.823a41.041,41.041,0,0,0-2.334,7.17,9.619,9.619,0,0,0-.065,3.634,6.472,6.472,0,0,0,.636,1.7,7.041,7.041,0,0,0,1.157,1.478,5.658,5.658,0,0,1-1.49-1.252,5.8,5.8,0,0,1-.922-1.766,7.663,7.663,0,0,1-.3-1.974,11.066,11.066,0,0,1,.176-1.968,15.727,15.727,0,0,1,1.206-3.7A20.009,20.009,0,0,1,427.42,526.823Z" transform="translate(-314.273 -511.369)" fill="#99440b"/><path d="M411.37,527.914a6.126,6.126,0,0,0,3.567.827,9.638,9.638,0,0,0,3.479-1.092,24.355,24.355,0,0,0,3.186-1.976c.982-.794,1.99-1.564,3.055-2.3-.841.963-1.723,1.91-2.657,2.8a16,16,0,0,1-3.216,2.205,8.46,8.46,0,0,1-3.827,1,5.646,5.646,0,0,1-1.96-.387A5.586,5.586,0,0,1,411.37,527.914Z" transform="translate(-317.029 -512.116)" fill="#99440b"/><path d="M449.041,580.745c-1.079.288-2.142.569-3.186.877a19.083,19.083,0,0,0-3.016,1.147,8.232,8.232,0,0,0-2.53,1.842,6.361,6.361,0,0,0-1.445,2.836,4.967,4.967,0,0,1,.944-3.235,7.138,7.138,0,0,1,2.668-2.177A14.383,14.383,0,0,1,449.041,580.745Z" transform="translate(-311.08 -499.697)" fill="#99440b"/><path d="M440.493,567.627a6.3,6.3,0,0,0,.99,3.137,8.357,8.357,0,0,0,2.308,2.281A19.923,19.923,0,0,0,446.7,574.7c1.019.481,2.063.939,3.119,1.406a16.762,16.762,0,0,1-3.365-.815,13.029,13.029,0,0,1-3.132-1.57,7.343,7.343,0,0,1-2.389-2.635A5.03,5.03,0,0,1,440.493,567.627Z" transform="translate(-310.753 -502.536)" fill="#99440b"/><path d="M375.536,514.179a31.17,31.17,0,0,0,4.508,4.084,7.831,7.831,0,0,0,2.659,1.191,6.531,6.531,0,0,0,2.98-.066,4.866,4.866,0,0,1-3.078.7,6.689,6.689,0,0,1-3.017-1.141A12.771,12.771,0,0,1,375.536,514.179Z" transform="translate(-324.786 -514.106)" fill="#99440b"/><path d="M366.617,527.773a6.336,6.336,0,0,0,2.3-2.283,8.252,8.252,0,0,0,.971-3.036,19.61,19.61,0,0,0,.15-3.282c-.035-1.108-.1-2.226-.163-3.36a14.783,14.783,0,0,1,.826,6.758,7.241,7.241,0,0,1-1.249,3.27A5.014,5.014,0,0,1,366.617,527.773Z" transform="translate(-326.717 -513.753)" fill="#99440b"/><path d="M338.1,549.977c1.216.039,2.418.079,3.609.088a21.338,21.338,0,0,0,3.528-.24,8.753,8.753,0,0,0,3.252-1.1,6.234,6.234,0,0,0,2.331-2.564,5.115,5.115,0,0,1-1.971,3.093,7.712,7.712,0,0,1-3.482,1.382,14.209,14.209,0,0,1-3.69.068A18.683,18.683,0,0,1,338.1,549.977Z" transform="translate(-332.889 -507.184)" fill="#99440b"/><path d="M343.786,565.755a6.232,6.232,0,0,0-.241-3.452,8.722,8.722,0,0,0-1.866-2.876,21.516,21.516,0,0,0-2.617-2.37c-.939-.73-1.9-1.442-2.882-2.165a18.46,18.46,0,0,1,3.253,1.645,14.116,14.116,0,0,1,2.85,2.337,7.706,7.706,0,0,1,1.87,3.238A5.115,5.115,0,0,1,343.786,565.755Z" transform="translate(-333.305 -505.293)" fill="#99440b"/><path d="M362.844,609.821a6.117,6.117,0,0,0-3.513-1.917,10.619,10.619,0,0,0-4.013.245,49.229,49.229,0,0,0-7.82,2.83,21.665,21.665,0,0,1,7.642-3.63,9.427,9.427,0,0,1,4.322-.068A5.361,5.361,0,0,1,362.844,609.821Z" transform="translate(-330.855 -494.001)" fill="#99440b"/><path d="M403.6,514.873a36.9,36.9,0,0,0,.879,5.284,6.812,6.812,0,0,0,1.1,2.3,5.007,5.007,0,0,0,2.073,1.558,3.772,3.772,0,0,1-2.552-1.134,5.732,5.732,0,0,1-1.4-2.49,10.043,10.043,0,0,1-.38-2.771A11.952,11.952,0,0,1,403.6,514.873Z" transform="translate(-318.773 -513.956)" fill="#99440b"/><path d="M392.933,520.464a5.022,5.022,0,0,0,2.472-.522,6.657,6.657,0,0,0,1.926-1.552,36.337,36.337,0,0,0,2.988-4.271,11.371,11.371,0,0,1-.883,2.54,9.707,9.707,0,0,1-1.5,2.28,5.59,5.59,0,0,1-2.286,1.591A3.729,3.729,0,0,1,392.933,520.464Z" transform="translate(-321.02 -514.119)" fill="#99440b"/><path d="M444.377,548.92a40.107,40.107,0,0,0-3.412,4.587,7.242,7.242,0,0,0-.972,2.544,4.912,4.912,0,0,0,.389,2.729A3.854,3.854,0,0,1,439.355,556a6.168,6.168,0,0,1,.9-2.9,11.3,11.3,0,0,1,1.834-2.338A13.519,13.519,0,0,1,444.377,548.92Z" transform="translate(-310.971 -506.586)" fill="#99440b"/><path d="M432.33,545.136a4.808,4.808,0,0,0,2.514,1.478,7.8,7.8,0,0,0,2.9.007,44.449,44.449,0,0,0,5.859-1.6,14.191,14.191,0,0,1-5.736,2.407,6.682,6.682,0,0,1-3.2-.2A3.97,3.97,0,0,1,432.33,545.136Z" transform="translate(-312.492 -507.429)" fill="#99440b"/><path d="M366.667,626.191a54.988,54.988,0,0,0,2.463-6.7,10.092,10.092,0,0,0,.356-3.421,4.755,4.755,0,0,0-1.557-3.018,4.2,4.2,0,0,1,2.188,2.912,8.525,8.525,0,0,1-.193,3.726A18.9,18.9,0,0,1,366.667,626.191Z" transform="translate(-326.706 -492.703)" fill="#99440b"/><path d="M381.488,621.255a4.768,4.768,0,0,0-3.143-.378,8.931,8.931,0,0,0-2.878,1.35,50.222,50.222,0,0,0-5.082,4.253,16.525,16.525,0,0,1,4.629-4.935,7.594,7.594,0,0,1,3.229-1.3A4.093,4.093,0,0,1,381.488,621.255Z" transform="translate(-325.901 -491.152)" fill="#99440b"/><path d="M423.036,622.578a67.484,67.484,0,0,0-5.011-6.717,12.413,12.413,0,0,0-3.118-2.6,4.806,4.806,0,0,0-3.936-.353,4.276,4.276,0,0,1,2.047-.645,4.572,4.572,0,0,1,1.106.082,7.115,7.115,0,0,1,1.057.337,10.568,10.568,0,0,1,3.45,2.629A24.828,24.828,0,0,1,423.036,622.578Z" transform="translate(-317.115 -492.877)" fill="#99440b"/><path d="M424.665,606.4a4.811,4.811,0,0,0-2.115,3.134,11.589,11.589,0,0,0,.023,3.866,63.35,63.35,0,0,0,1.942,7.751,22.731,22.731,0,0,1-2.753-7.633,9.884,9.884,0,0,1,.172-4.145A4.4,4.4,0,0,1,424.665,606.4Z" transform="translate(-314.809 -494.144)" fill="#99440b"/><path d="M392.181,631.063c-.4-1.1-.8-2.18-1.221-3.241a20.144,20.144,0,0,0-1.484-3.045,8.472,8.472,0,0,0-2.158-2.479,6.3,6.3,0,0,0-3.111-1.188,5.046,5.046,0,0,1,3.463.654,7.417,7.417,0,0,1,2.5,2.586A15.55,15.55,0,0,1,392.181,631.063Z" transform="translate(-322.909 -490.975)" fill="#99440b"/><path d="M404.2,620.544a6.3,6.3,0,0,0-3,1.348,8.381,8.381,0,0,0-2,2.557,19.982,19.982,0,0,0-1.3,3.08c-.359,1.069-.692,2.159-1.034,3.263a16.737,16.737,0,0,1,.418-3.438,13.075,13.075,0,0,1,1.2-3.294,7.351,7.351,0,0,1,2.342-2.681A5.031,5.031,0,0,1,404.2,620.544Z" transform="translate(-320.17 -491.088)" fill="#99440b"/><path d="M437.4,606.423a26.694,26.694,0,0,0-4.047.4,5.9,5.9,0,0,0-1.785.7,5.843,5.843,0,0,0-1.483,1.353,3.376,3.376,0,0,1,1.1-1.864,4.538,4.538,0,0,1,1.985-.991,6.68,6.68,0,0,1,2.167-.113A7.281,7.281,0,0,1,437.4,606.423Z" transform="translate(-312.979 -494.257)" fill="#99440b"/><path d="M436.3,595.437a5.354,5.354,0,0,0-.084,2.248,6.167,6.167,0,0,0,.81,2.019,31.255,31.255,0,0,0,2.837,3.619,8.984,8.984,0,0,1-1.973-1.345,7.987,7.987,0,0,1-1.568-1.855,5.016,5.016,0,0,1-.74-2.371A3.559,3.559,0,0,1,436.3,595.437Z" transform="translate(-311.788 -496.516)" fill="#99440b"/><path d="M349.436,528.8A38.836,38.836,0,0,0,354.55,531a7.048,7.048,0,0,0,2.626.338,4.945,4.945,0,0,0,2.507-.967,3.818,3.818,0,0,1-2.41,1.6,5.962,5.962,0,0,1-2.954-.184,10.734,10.734,0,0,1-2.632-1.214A12.774,12.774,0,0,1,349.436,528.8Z" transform="translate(-330.436 -510.94)" fill="#99440b"/><path d="M348.23,542.074a5.047,5.047,0,0,0,.845-2.36,6.588,6.588,0,0,0-.3-2.434,35.968,35.968,0,0,0-2.038-4.75,11.168,11.168,0,0,1,1.684,2.069,9.594,9.594,0,0,1,1.142,2.454,5.551,5.551,0,0,1,.144,2.761A3.719,3.719,0,0,1,348.23,542.074Z" transform="translate(-331.02 -510.134)" fill="#99440b"/><path d="M333.817,582.961a50.322,50.322,0,0,0,6.189-2.608,9.136,9.136,0,0,0,2.556-1.963,4.766,4.766,0,0,0,1.109-3.007,4.108,4.108,0,0,1-.6,3.39,7.751,7.751,0,0,1-2.67,2.3A16.985,16.985,0,0,1,333.817,582.961Z" transform="translate(-333.817 -500.857)" fill="#99440b"/><path d="M345.722,590.449a4.761,4.761,0,0,0-1.783-2.593,8.822,8.822,0,0,0-2.9-1.264,49.474,49.474,0,0,0-6.513-1,16.365,16.365,0,0,1,6.726.209,7.545,7.545,0,0,1,3.089,1.562A4.081,4.081,0,0,1,345.722,590.449Z" transform="translate(-333.663 -498.701)" fill="#99440b"/><path d="M343.828,609.031a52.555,52.555,0,0,0,5.492-6.79,11.473,11.473,0,0,0,1.65-3.894,6.111,6.111,0,0,0-.726-4.128,5.438,5.438,0,0,1,1.361,4.214,10.141,10.141,0,0,1-1.589,4.241A23.682,23.682,0,0,1,343.828,609.031Z" transform="translate(-331.65 -496.78)" fill="#99440b"/></g><path d="M398.061,661.45c3.275.973,6.861-4.607,3.248-5.59C397.814,654.91,394.271,660.324,398.061,661.45Z" transform="translate(19.795 37.413)" fill="#dd6514"/></g><rect width="154" height="46" rx="9" transform="translate(296 56)" fill="#fff"/><text transform="translate(349 88)" fill="#3e3c9c" font-size="28" font-family="Roboto-Bold, Roboto" font-weight="700"><tspan x="0" y="0">Back</tspan></text><path d="M13.5,0,27,14H0Z" transform="translate(322 92) rotate(-90)" fill="#3e3c9c"/></g></svg>