<svg xmlns="http://www.w3.org/2000/svg" xmlns:xlink="http://www.w3.org/1999/xlink" width="1440" height="256" viewBox="0 0 1440 256"><defs><linearGradient id="a" y1="0.5" x2="1" y2="0.5" gradientUnits="objectBoundingBox"><stop offset="0.01" stop-color="#bbbfd9"/><stop offset="1" stop-color="#d6dbf8"/></linearGradient><linearGradient id="b" y1="0.5" x2="1" y2="0.5" gradientUnits="objectBoundingBox"><stop offset="0" stop-color="#753200"/><stop offset="1" stop-color="#a04400"/></linearGradient><linearGradient id="c" x1="0.5" y1="0.989" x2="0.5" y2="0.004" gradientUnits="objectBoundingBox"><stop offset="0" stop-color="#201f4f"/><stop offset="0.389" stop-color="#3d3c99"/><stop offset="1" stop-color="#403da0"/></linearGradient><linearGradient id="d" x1="0.752" y1="0.512" x2="1.016" y2="0.521" gradientUnits="objectBoundingBox"><stop offset="0.109" stop-color="#343381"/><stop offset="0.562" stop-color="#3d3c99"/><stop offset="1" stop-color="#403da0"/></linearGradient><linearGradient id="e" x1="0.642" y1="0.5" x2="1.781" y2="0.5" gradientUnits="objectBoundingBox"><stop offset="0" stop-color="#a7a5ee"/><stop offset="0.438" stop-color="#9d9ce8"/><stop offset="0.891" stop-color="#8988d5"/></linearGradient><linearGradient id="f" x1="-0.292" y1="0.853" x2="0.58" y2="0.516" xlink:href="#b"/><linearGradient id="g" x1="0.384" y1="0.762" x2="1.031" y2="0.106" gradientUnits="objectBoundingBox"><stop offset="0.003" stop-color="#a04400" stop-opacity="0"/><stop offset="0.176" stop-color="#994100" stop-opacity="0.145"/><stop offset="0.519" stop-color="#893a00" stop-opacity="0.522"/><stop offset="0.901" stop-color="#753200"/></linearGradient><linearGradient id="h" x1="0" y1="0.5" x2="1" y2="0.5" xlink:href="#e"/><linearGradient id="i" x1="1.004" y1="0.168" x2="0.111" y2="0.992" gradientUnits="objectBoundingBox"><stop offset="0" stop-color="#a04400"/><stop offset="1" stop-color="#753200"/></linearGradient><linearGradient id="j" x1="0.962" y1="0.268" x2="0.314" y2="0.673" xlink:href="#b"/></defs><g transform="translate(-240)"><path d="M0,0H1440a0,0,0,0,1,0,0V238a18,18,0,0,1-18,18H18A18,18,0,0,1,0,238V0A0,0,0,0,1,0,0Z" transform="translate(240)" fill="#f8f8f8"/><text transform="translate(342 194)" font-size="48" font-family="Roboto-Bold, Roboto" font-weight="700"><tspan x="0" y="0">WHAT TO DO IF YOU ARE SICK</tspan></text><rect width="154" height="46" rx="9" transform="translate(296 56)" fill="#fff"/><text transform="translate(349 88)" fill="#3e3c9c" font-size="28" font-family="Roboto-Bold, Roboto" font-weight="700"><tspan x="0" y="0">Back</tspan></text><path d="M13.5,0,27,14H0Z" transform="translate(322 92) rotate(-90)" fill="#3e3c9c"/><g transform="translate(1200.845 -1353.423)"><g transform="translate(258.887 1452.964)"><rect width="34.548" height="46.455" rx="3.867" fill="url(#a)"/><rect width="28.752" height="39.602" rx="2.094" transform="translate(2.898 3.427)" fill="#fff"/></g><path d="M416.969,1566.445s-47.25,8.66-65.173,14.571-65.1,100.011-66.829,116.359,55.684,7.115,55.684,7.115S417.341,1569.477,416.969,1566.445Z" transform="translate(-28.263 -104.824)" fill="#1f1844"/><path d="M544.171,1490.789c.7-2.15,1.089-7.805,1.453-9.581-2.858.386-5.36,4.661-5.361,7.244C541.01,1488.355,543.367,1490.232,544.171,1490.789Z" transform="translate(-167.648 -58.293)" fill="url(#b)"/><path d="M526.823,1715.185c-1.991,14.707-23.623,16.807-48.816,17.591-.762.382-28.566.214-41.512-4.148l.45-99.6c.03-8.411,3.595-22.291,15.868-22.494,20.608-.342,58.832-3.481,73.8,1.141,3.421,12.289,5.917,25.866.214,61.365C523.567,1689.359,527.784,1708.124,526.823,1715.185Z" transform="translate(-111.002 -125.965)" fill="url(#c)"/><path d="M585.9,1616.692c4.548,13.7,3.993,21.654-2.1,43.824-10.147,36.944,6.509,55.91-28.7,74.54,21.345-1.219,34.771-4.51,36.466-17.029.961-7.061-3.256-25.827,0-46.148,4.2-26.147,12.039-47.514,1.617-60.141C590.3,1608.242,584.36,1612.056,585.9,1616.692Z" transform="translate(-175.751 -128.806)" fill="url(#d)"/><path d="M519.248,1632.467c-5.379.911-21.971,3.119-27.161.808.542,5.14,1.1,14.25,1.1,14.25s-50.5.072-67.118,6.424c0-.541-3.342-27.1-3.449-27.275.368-3.078,4.043-15.822,10.813-26.284,5.709-8.823,13.835-12.834,28.5-14.915l19.409-1.351s19.315-2.042,28.237,7.688S519.248,1632.467,519.248,1632.467Z" transform="translate(-103.426 -114.377)" fill="url(#e)"/><path d="M479.04,1515.637a10.211,10.211,0,0,1-11.11-5.551,15.241,15.241,0,0,1-.886-3.8l-.221-1.38-.206-1.273-.259-1.563a18.372,18.372,0,0,1-2.2.145c-5.757.03-15.167-2.3-19.276-11-2.875-6.07-1.335-12.269-1.815-16.013-.465-3.736-2.373-6.187-3.637-10.277-1.62-5.242-.4-12.255,2.021-14.2,10.881-8.815,39.178-10.956,39.178-10.956s1.792,8,1.022,23.408c.671-.595-.351,2.783.633,2.44a6.44,6.44,0,0,1,5.284.183c3.012,1.715,3.752,6.817-.6,14.587-.046.092-.1.183-.153.275a33.7,33.7,0,0,0,.336,4.308c.03.213.053.435.084.663.351,2.638.8,6.055,1.243,9.356.64,4.766,1.373,8.844,1.633,10.429C490.73,1509.27,487.138,1514.325,479.04,1515.637Z" transform="translate(-112.204 -35.672)" fill="url(#f)"/><path d="M482.928,1465.452c.77-15.411-.115-21.516-.115-21.516s-29.2.249-40.085,9.064c-1.708,1.372-1.624,4.324-1.7,6.862,4.225-4.445,14.038-4.194,21.655-4.994,3.645-.381,2.539,3.721,3.577,3.767,7.854-2.535,13.7.8,13.786,12.363l3.431-3.094C482.648,1468.008,483.578,1464.876,482.928,1465.452Z" transform="translate(-113.477 -37.947)" fill="url(#g)"/><path d="M513.238,1749.229l-64.562-7.089v-21.352l71.982,6.014Z" transform="translate(-117.652 -189.079)" fill="url(#h)"/><line x1="1.807" y1="10.449" transform="translate(386.898 1508.175)" fill="none" stroke="#fff" stroke-linecap="round" stroke-miterlimit="10" stroke-width="1.679"/><path d="M488.92,1444.4c.018-.454-2.59-20.354-10.794-25.174-13.85-8.138-49.911-4.6-40.906,25.077,2.87-12.242,9.382,2.087,24.713-10.385,1.517-1.234,9.017-5.155,16.434-2.378-11.277,1.461-13.341,6.122-12.86,6.143,8.864-2.859,15.172,1.746,13.535,17.208,2.3-1.363,3.787-2.778,5.18-2.958C485.983,1449.737,488.865,1445.812,488.92,1444.4Z" transform="translate(-110.619 -22.39)" fill="#1f1844"/><path d="M517.849,1534.461a33.491,33.491,0,0,1-20.413,19.276l-.206-1.273-.259-1.563a18.373,18.373,0,0,1-2.2.145c4.5-3.874,17.012-14.823,22.807-21.831-.046.092-.1.183-.153.275a33.7,33.7,0,0,0,.336,4.308C517.8,1534.011,517.818,1534.233,517.849,1534.461Z" transform="translate(-142.817 -84.5)" fill="url(#i)"/><path d="M488.81,1496.054c.275-.311,1.128-1.081,1.128-1.081l-.658-2.851-4.025,2.687a2.447,2.447,0,0,0-1.067,2.36l1.353,10.134c-5.582,3.426-18.3,13.257-20.707,13.66-3.05.511-4.072-3.3-5.719-2.417s-1.4,3.18-2.547,3.18c-.595,0-4.491-2.439-5.77-4.083,0,0,1.982,6.469,2.407,7.6.985,2.634,6.729,7.951,6.729,7.951a2.694,2.694,0,0,0,2.239.782l7.2-.87,3.621-2.248c5.048-2.9,16.732-14.345,16.776-15.91C490.026,1505.807,486.067,1499.156,488.81,1496.054Z" transform="translate(-118.81 -64.251)" fill="#1f1844"/><path d="M537.291,1504.9s1.621-3.05,3.336-1.143,0,5.814,0,5.814Z" transform="translate(-166.026 -70.259)" fill="url(#j)"/><g transform="translate(300.492 1465.812)"><path d="M413.042,1604.7l12.3,2.027,10.816-27.437-18.791-3.615Z" transform="translate(-398.691 -1575.673)" fill="url(#a)"/><path d="M381.44,1646.481s.744,30.962,3.267,46.1,8.7,18.6,15.431,17.361c8.41-1.547,6.891-21.4,5.719-29.436-1.82-12.481-6.778-34.963-6.778-34.963Z" transform="translate(-381.44 -1613.814)" fill="url(#h)"/><path d="M384.987,1608.254c.408-.629,1.615-10.614,3.508-16.291s6.233-8.661,9.375-10.6c3.672-2.266,10.835-5.455,13.794-5.455s7.87-.947,7.644.946-7.831,2.881-8.912,3.017-4.677,2.591-4.677,2.591,14.851,1.556,15.121,4.394-16.337-.8-16.49,1.487c-.11,1.655,13.111-.135,12.57,2.839s-14.6.27-15.138,1.487,8.965,1.452,8.623,3.6-10.969.348-11.239,2.375a86.762,86.762,0,0,0,.1,8.846Z" transform="translate(-383.376 -1575.673)" fill="url(#b)"/><path d="M470.477,1642.222s-7.3-15.949-10.272-17.3-7.3-3.784-7.3-3.784-1.622,1.487,0,2.7,7.7,7.7,5.136,7.839-3.874-3.244-5.857-4.46-1.839-2.443-.9-3.379-.676-2.433-1.622-2.028-4.055,2.839-4.055,5.271c-1.487,2.7-2.3,4.73-.676,6.217-.892,1.757-1.648,2.163-.892,3.65s5.082,5.271,3.865,6.352-.406,3.108,2.028,4.46,12.3,5.271,12.3,5.271Z" transform="translate(-415.444 -1600.491)" fill="url(#b)"/></g><path d="M483.869,1564.484c-1.775-7.985-12.413-1.514-14.531,8.174s-27.787,36.676-27.787,36.676l-8.245,10.813s-12.365,5.189-16.948,12.5c-6.008,9.59-14.783,25.878-22.716,41.091a25.322,25.322,0,0,0,22.348,37.022l93.558.415a29.726,29.726,0,0,0,29.531-25.254c2.107-13.912,2.881-29.643-2.642-36.25-10.9-13.04-8.975-25.854-11.4-39.174s3.633-11.28-12.109-20.323S484.475,1567.208,483.869,1564.484Z" transform="translate(-86.025 -101.791)" fill="#1f1844"/><g transform="translate(233.155 1374.423)"><rect width="47.099" height="59.138" rx="5.094" fill="url(#a)"/><rect width="40.595" height="52.135" rx="2.855" transform="translate(3.252 3.501)" fill="#fff"/></g></g></g></svg>