<svg xmlns="http://www.w3.org/2000/svg" width="154" height="46" viewBox="0 0 154 46">
  <g id="home" transform="translate(-296 -56)">
    <rect id="Rectangle_16" data-name="Rectangle 16" width="154" height="46" rx="9" transform="translate(296 56)" fill="#fff"/>
    <g id="Group_61" data-name="Group 61">
      <path id="Path_540" data-name="Path 540" d="M17.979,0h-4.1V-8.531h-8V0h-4.1V-19.906h4.1v8.066h8v-8.066h4.1Zm2.707-7.533a8.773,8.773,0,0,1,.848-3.924,6.205,6.205,0,0,1,2.44-2.666,7.12,7.12,0,0,1,3.7-.943,6.736,6.736,0,0,1,4.888,1.832,7.353,7.353,0,0,1,2.112,4.977L34.7-7.246a7.732,7.732,0,0,1-1.9,5.462A6.606,6.606,0,0,1,27.7.273a6.639,6.639,0,0,1-5.106-2.051,7.868,7.868,0,0,1-1.907-5.578Zm3.951.28a5.53,5.53,0,0,0,.793,3.225A2.616,2.616,0,0,0,27.7-2.912a2.622,2.622,0,0,0,2.242-1.1,6.051,6.051,0,0,0,.807-3.526,5.474,5.474,0,0,0-.807-3.2,2.622,2.622,0,0,0-2.27-1.136,2.579,2.579,0,0,0-2.242,1.13A6.153,6.153,0,0,0,24.637-7.253Zm16.2-7.54.123,1.654a5.2,5.2,0,0,1,4.252-1.928,3.945,3.945,0,0,1,3.924,2.256,5.079,5.079,0,0,1,4.443-2.256,4.412,4.412,0,0,1,3.582,1.4,6.441,6.441,0,0,1,1.176,4.218V0H54.373V-9.434a2.817,2.817,0,0,0-.492-1.839,2.181,2.181,0,0,0-1.736-.581,2.466,2.466,0,0,0-2.461,1.7L49.7,0H45.746V-9.42a2.783,2.783,0,0,0-.506-1.859,2.2,2.2,0,0,0-1.723-.574,2.561,2.561,0,0,0-2.434,1.395V0H37.133V-14.793ZM68.182.273a7.262,7.262,0,0,1-5.3-2A7.1,7.1,0,0,1,60.84-7.041v-.383a8.936,8.936,0,0,1,.861-3.985,6.321,6.321,0,0,1,2.44-2.707,6.85,6.85,0,0,1,3.6-.95,6.139,6.139,0,0,1,4.778,1.914,7.778,7.778,0,0,1,1.743,5.428v1.613h-9.42A3.67,3.67,0,0,0,66-3.787a3.492,3.492,0,0,0,2.44.875A4.265,4.265,0,0,0,72.01-4.566l1.941,2.174A5.931,5.931,0,0,1,71.545-.431,7.9,7.9,0,0,1,68.182.273ZM67.73-11.881a2.469,2.469,0,0,0-1.907.8,4.124,4.124,0,0,0-.937,2.28h5.5v-.316a2.942,2.942,0,0,0-.711-2.039A2.547,2.547,0,0,0,67.73-11.881Z" transform="translate(349 88)" fill="#3e3c9c"/>
      <path id="Polygon_1" data-name="Polygon 1" d="M13.5,0,27,14H0Z" transform="translate(322 92) rotate(-90)" fill="#3e3c9c"/>
    </g>
  </g>
</svg>
