<svg xmlns="http://www.w3.org/2000/svg" width="64" height="64" viewBox="0 0 64 64">
  <g id="Icon_2" transform="translate(-287.735 -407.992)">
    <circle id="Ellipse_3" data-name="Ellipse 3" cx="32" cy="32" r="32" transform="translate(287.735 407.992)" fill="#790000"/>
    <path id="Path_106" data-name="Path 106" d="M328.93,421.667a36.881,36.881,0,0,1-15.044-3.2,36.826,36.826,0,0,1-15.044,3.2H297.9v2.542c0,11.51,5.9,22.365,15.987,29.432,10.088-7.066,15.987-17.921,15.987-29.432v-2.542Zm-10.775,6.6.512-.512,1.9,1.918-.512.512-.735-.735-2.03,2.03-.448-.448,2.046-2.03Zm-5.627-1.918h2.7v.719h-1.023v2.878h-.639v-2.878h-1.039Zm-3.421,1.407.512.512-.735.735,2.046,2.03-.448.448-2.03-2.03-.735.735-.512-.512ZM306.5,435.8h-.719v-2.7h.719v1.039h2.878v.623H306.5Zm3.117,4.828-.512.512-1.9-1.918.512-.512.735.735,2.03-2.03.448.448-2.046,2.03Zm5.611,1.918h-2.7v-.719h1.039v-2.878h.639v2.878h1.023Zm-1.407-4.316a3.782,3.782,0,1,1,3.677-3.773A3.73,3.73,0,0,1,313.823,438.23Zm4.844,2.91-.512-.512.735-.735-2.046-2.03.448-.448,2.03,2.03.735-.735.512.512Zm3.325-5.34h-.719v-1.039H318.4v-.623h2.878V433.1h.719Z" transform="translate(6.086 6.273)" fill="#fff"/>
  </g>
</svg>
