<svg xmlns="http://www.w3.org/2000/svg" width="64" height="64" viewBox="0 0 64 64">
  <g id="icon_1" transform="translate(-222.94 -408)">
    <circle id="Ellipse_1" data-name="Ellipse 1" cx="32" cy="32" r="32" transform="translate(222.94 408)" fill="#fb7f1c"/>
    <g id="Group_49" data-name="Group 49" transform="translate(237.82 422.88)">
      <g id="Group_32" data-name="Group 32" transform="translate(9.215 9.131)">
        <ellipse id="Ellipse_2" data-name="Ellipse 2" cx="7.759" cy="7.989" rx="7.759" ry="7.989"/>
      </g>
      <g id="Group_34" data-name="Group 34" transform="translate(14.259)">
        <g id="Group_33" data-name="Group 33">
          <path id="Path_98" data-name="Path 98" d="M246.859,417.3v1.522h-2.184v6.087h-1.332v-6.087h-2.191V417.3Z" transform="translate(-241.152 -417.3)"/>
        </g>
      </g>
      <g id="Group_36" data-name="Group 36" transform="translate(2.99 2.998)">
        <g id="Group_35" data-name="Group 35">
          <path id="Path_99" data-name="Path 99" d="M241.977,426.1l-.936.943-4.3-4.307-1.552,1.552-1.08-1.08,4.04-4.033,1.073,1.073-1.545,1.552Z" transform="translate(-234.109 -419.174)"/>
        </g>
      </g>
      <g id="Group_38" data-name="Group 38" transform="translate(0 14.267)">
        <g id="Group_37" data-name="Group 37">
          <path id="Path_100" data-name="Path 100" d="M239.849,428.408v1.324h-6.087v2.191H232.24v-5.707h1.522v2.191Z" transform="translate(-232.24 -426.217)"/>
        </g>
      </g>
      <g id="Group_40" data-name="Group 40" transform="translate(2.99 23.375)">
        <g id="Group_39" data-name="Group 39">
          <path id="Path_101" data-name="Path 101" d="M237.678,437.152l1.545,1.552-1.073,1.073-4.04-4.033,1.08-1.081,1.552,1.552,4.3-4.307.936.943Z" transform="translate(-234.109 -431.909)"/>
        </g>
      </g>
      <g id="Group_42" data-name="Group 42" transform="translate(14.259 26.631)">
        <g id="Group_41" data-name="Group 41">
          <path id="Path_102" data-name="Path 102" d="M246.859,440.032v1.522h-5.707v-1.522h2.191v-6.087h1.332v6.087Z" transform="translate(-241.152 -433.944)"/>
        </g>
      </g>
      <g id="Group_44" data-name="Group 44" transform="translate(23.374 23.375)">
        <g id="Group_43" data-name="Group 43">
          <path id="Path_103" data-name="Path 103" d="M254.717,435.744l-4.04,4.033L249.6,438.7l1.545-1.552-4.3-4.3.936-.943,4.3,4.307,1.552-1.552Z" transform="translate(-246.849 -431.909)"/>
        </g>
      </g>
      <g id="Group_46" data-name="Group 46" transform="translate(26.631 14.267)">
        <g id="Group_45" data-name="Group 45">
          <path id="Path_104" data-name="Path 104" d="M256.493,426.217v5.707h-1.522v-2.191h-6.087v-1.324h6.087v-2.191Z" transform="translate(-248.884 -426.217)"/>
        </g>
      </g>
      <g id="Group_48" data-name="Group 48" transform="translate(23.374 2.998)">
        <g id="Group_47" data-name="Group 47">
          <path id="Path_105" data-name="Path 105" d="M254.717,423.206l-1.08,1.08-1.552-1.552-4.3,4.307-.936-.943,4.3-4.3-1.545-1.552,1.073-1.073Z" transform="translate(-246.849 -419.174)"/>
        </g>
      </g>
    </g>
  </g>
</svg>
